<svg xmlns="http://www.w3.org/2000/svg" xmlns:xlink="http://www.w3.org/1999/xlink" width="500" zoomAndPan="magnify" viewBox="0 0 375 374.999991" height="500" preserveAspectRatio="xMidYMid meet" version="1.0"><defs><clipPath id="3d03ef8de9"><path d="M 0 100 L 375 100 L 375 312 L 0 312 Z M 0 100 " clip-rule="nonzero"/></clipPath><clipPath id="b3050307b9"><path d="M 76.800781 -16.511719 L 441.433594 292.171875 L 319.800781 435.851562 L -44.832031 127.167969 Z M 76.800781 -16.511719 " clip-rule="nonzero"/></clipPath><clipPath id="a7861e5e8b"><path d="M 76.800781 -16.511719 L 441.433594 292.171875 L 319.800781 435.851562 L -44.832031 127.167969 Z M 76.800781 -16.511719 " clip-rule="nonzero"/></clipPath></defs><g clip-path="url(#3d03ef8de9)"><g clip-path="url(#b3050307b9)"><g clip-path="url(#a7861e5e8b)"><path fill="#4733dd" d="M -38.359375 130.226562 C -36.707031 129.800781 -35.707031 128.113281 -36.132812 126.460938 C -36.554688 124.804688 -38.242188 123.804688 -39.898438 124.230469 C -41.550781 124.652344 -42.550781 126.339844 -42.125 127.996094 C -41.703125 129.648438 -40.015625 130.648438 -38.359375 130.226562 Z M -26.351562 126.980469 C -24.703125 126.523438 -23.738281 124.816406 -24.195312 123.167969 C -24.652344 121.523438 -26.359375 120.558594 -28.007812 121.015625 C -29.652344 121.472656 -30.617188 123.179688 -30.160156 124.828125 C -29.703125 126.472656 -27.996094 127.4375 -26.351562 126.980469 Z M -14.429688 123.671875 C -12.78125 123.21875 -11.8125 121.515625 -12.265625 119.871094 C -12.714844 118.222656 -14.421875 117.25 -16.070312 117.703125 C -17.714844 118.15625 -18.6875 119.859375 -18.234375 121.507812 C -17.78125 123.15625 -16.078125 124.125 -14.429688 123.671875 Z M -2.511719 120.476562 C -0.859375 120.046875 0.132812 118.355469 -0.296875 116.703125 C -0.726562 115.050781 -2.417969 114.058594 -4.070312 114.488281 C -5.722656 114.917969 -6.71875 116.609375 -6.285156 118.261719 C -5.855469 119.917969 -4.164062 120.910156 -2.511719 120.476562 Z M 9.4375 117.484375 C 11.097656 117.085938 12.125 115.414062 11.726562 113.753906 C 11.328125 112.09375 9.65625 111.070312 7.996094 111.46875 C 6.332031 111.863281 5.308594 113.539062 5.707031 115.199219 C 6.105469 116.859375 7.777344 117.882812 9.4375 117.484375 Z M 21.4375 114.757812 C 23.105469 114.402344 24.171875 112.753906 23.8125 111.082031 C 23.457031 109.414062 21.808594 108.347656 20.140625 108.707031 C 18.46875 109.0625 17.402344 110.710938 17.761719 112.382812 C 18.121094 114.050781 19.765625 115.117188 21.4375 114.757812 Z M 33.488281 112.347656 C 35.167969 112.039062 36.28125 110.421875 35.96875 108.742188 C 35.660156 107.0625 34.042969 105.953125 32.363281 106.261719 C 30.683594 106.574219 29.570312 108.1875 29.882812 109.867188 C 30.195312 111.546875 31.808594 112.660156 33.488281 112.347656 Z M 45.597656 110.304688 C 47.285156 110.050781 48.449219 108.472656 48.191406 106.78125 C 47.9375 105.09375 46.359375 103.929688 44.667969 104.1875 C 42.980469 104.441406 41.816406 106.023438 42.074219 107.710938 C 42.328125 109.398438 43.910156 110.5625 45.597656 110.304688 Z M 57.753906 108.683594 C 59.453125 108.488281 60.671875 106.953125 60.476562 105.253906 C 60.28125 103.558594 58.746094 102.339844 57.050781 102.535156 C 57.050781 102.53125 57.050781 102.53125 57.050781 102.53125 C 55.351562 102.726562 54.132812 104.261719 54.328125 105.960938 C 54.523438 107.65625 56.058594 108.878906 57.753906 108.683594 Z M 69.953125 107.53125 C 71.65625 107.40625 72.9375 105.921875 72.8125 104.21875 C 72.6875 102.511719 71.203125 101.230469 69.5 101.359375 C 69.5 101.359375 69.5 101.355469 69.5 101.355469 C 67.796875 101.484375 66.515625 102.964844 66.640625 104.671875 C 66.765625 106.375 68.25 107.65625 69.953125 107.53125 Z M 82.175781 106.90625 C 83.882812 106.859375 85.230469 105.433594 85.183594 103.726562 C 85.136719 102.019531 83.710938 100.671875 82.003906 100.71875 C 80.296875 100.765625 78.949219 102.191406 78.996094 103.898438 C 79.042969 105.605469 80.46875 106.953125 82.175781 106.90625 Z M 305.675781 290.433594 C 306.976562 291.542969 308.929688 291.386719 310.039062 290.085938 C 311.148438 288.785156 310.988281 286.832031 309.691406 285.722656 C 308.390625 284.617188 306.433594 284.773438 305.328125 286.070312 C 304.21875 287.371094 304.375 289.328125 305.675781 290.433594 Z M 296.425781 281.808594 C 297.625 283.027344 299.585938 283.042969 300.800781 281.847656 C 302.019531 280.648438 302.035156 278.6875 300.839844 277.46875 C 299.640625 276.25 297.679688 276.234375 296.460938 277.433594 C 295.242188 278.632812 295.226562 280.59375 296.425781 281.808594 Z M 315.960938 298.085938 C 317.40625 298.996094 319.316406 298.554688 320.226562 297.109375 C 321.132812 295.660156 320.695312 293.75 319.246094 292.84375 C 317.796875 291.9375 315.886719 292.375 314.980469 293.820312 C 314.074219 295.269531 314.511719 297.179688 315.960938 298.085938 Z M 287.9375 272.480469 C 289.039062 273.785156 290.996094 273.949219 292.300781 272.847656 C 293.605469 271.746094 293.769531 269.792969 292.667969 268.488281 C 291.566406 267.183594 289.613281 267.019531 288.308594 268.117188 C 287.003906 269.222656 286.835938 271.175781 287.9375 272.480469 Z M 94.394531 106.871094 C 96.101562 106.910156 97.523438 105.554688 97.5625 103.847656 C 97.601562 102.140625 96.246094 100.722656 94.539062 100.683594 C 92.832031 100.644531 91.414062 102 91.371094 103.707031 C 91.332031 105.414062 92.6875 106.832031 94.394531 106.871094 Z M 327.355469 304.023438 C 328.929688 304.695312 330.75 303.960938 331.417969 302.390625 C 332.089844 300.820312 331.355469 299 329.785156 298.332031 C 328.214844 297.660156 326.394531 298.390625 325.722656 299.964844 C 325.054688 301.535156 325.785156 303.355469 327.355469 304.023438 Z M 280.148438 262.613281 C 281.164062 263.988281 283.101562 264.273438 284.476562 263.257812 C 285.847656 262.238281 286.136719 260.296875 285.117188 258.925781 C 284.101562 257.554688 282.160156 257.265625 280.789062 258.285156 C 279.417969 259.304688 279.128906 261.242188 280.148438 262.613281 Z M 272.941406 252.359375 C 273.890625 253.78125 275.816406 254.164062 277.234375 253.214844 C 278.65625 252.265625 279.039062 250.34375 278.089844 248.921875 C 277.144531 247.503906 275.21875 247.121094 273.800781 248.066406 C 272.378906 249.015625 271.996094 250.941406 272.941406 252.359375 Z M 339.460938 308.191406 C 341.109375 308.636719 342.808594 307.660156 343.253906 306.011719 C 343.699219 304.359375 342.722656 302.660156 341.070312 302.214844 C 339.421875 301.773438 337.722656 302.75 337.277344 304.398438 C 336.832031 306.046875 337.8125 307.746094 339.460938 308.191406 Z M 106.582031 107.492188 C 108.285156 107.625 109.78125 106.351562 109.914062 104.652344 C 110.050781 102.949219 108.777344 101.457031 107.074219 101.320312 C 105.371094 101.183594 103.878906 102.457031 103.746094 104.160156 C 103.609375 105.863281 104.882812 107.355469 106.582031 107.492188 Z M 266.207031 241.839844 C 266.207031 241.839844 266.210938 241.839844 266.210938 241.839844 C 267.105469 243.292969 269.011719 243.746094 270.46875 242.851562 C 271.921875 241.953125 272.375 240.046875 271.480469 238.59375 C 270.582031 237.136719 268.675781 236.683594 267.21875 237.582031 C 265.765625 238.476562 265.3125 240.386719 266.207031 241.839844 Z M 351.949219 310.742188 C 353.640625 310.984375 355.210938 309.808594 355.453125 308.117188 C 355.695312 306.429688 354.519531 304.859375 352.828125 304.617188 C 351.136719 304.371094 349.566406 305.550781 349.324219 307.238281 C 349.082031 308.929688 350.257812 310.5 351.949219 310.742188 Z M 259.816406 231.152344 C 260.675781 232.628906 262.574219 233.125 264.046875 232.265625 C 265.523438 231.40625 266.023438 229.507812 265.160156 228.03125 C 264.300781 226.558594 262.402344 226.058594 260.929688 226.917969 C 259.453125 227.78125 258.953125 229.675781 259.816406 231.152344 Z M 118.695312 108.828125 C 120.386719 109.070312 121.953125 107.894531 122.195312 106.203125 C 122.4375 104.511719 121.261719 102.941406 119.570312 102.699219 C 117.878906 102.460938 116.308594 103.636719 116.066406 105.328125 C 115.824219 107.019531 117.003906 108.585938 118.695312 108.828125 Z M 253.632812 220.386719 C 254.476562 221.871094 256.367188 222.390625 257.851562 221.546875 C 259.335938 220.703125 259.859375 218.8125 259.015625 217.328125 C 258.171875 215.84375 256.28125 215.324219 254.796875 216.164062 C 253.308594 217.007812 252.789062 218.898438 253.632812 220.386719 Z M 364.597656 311.867188 C 364.597656 311.867188 364.597656 311.867188 364.597656 311.871094 C 366.304688 311.933594 367.742188 310.601562 367.804688 308.894531 C 367.871094 307.1875 366.535156 305.75 364.832031 305.683594 C 364.832031 305.683594 364.832031 305.683594 364.828125 305.683594 C 363.125 305.621094 361.683594 306.953125 361.621094 308.660156 C 361.554688 310.367188 362.890625 311.804688 364.597656 311.867188 Z M 130.671875 110.953125 C 132.34375 111.308594 133.988281 110.242188 134.34375 108.570312 C 134.703125 106.902344 133.636719 105.257812 131.964844 104.898438 C 130.292969 104.542969 128.648438 105.609375 128.292969 107.28125 C 127.933594 108.949219 129 110.597656 130.671875 110.953125 Z M 247.53125 209.613281 C 247.53125 209.613281 247.53125 209.617188 247.53125 209.617188 C 248.375 211.101562 250.265625 211.621094 251.75 210.777344 C 253.234375 209.933594 253.753906 208.042969 252.910156 206.558594 C 252.066406 205.070312 250.175781 204.550781 248.691406 205.394531 C 247.207031 206.238281 246.6875 208.128906 247.53125 209.613281 Z M 241.378906 198.917969 C 242.242188 200.390625 244.136719 200.890625 245.613281 200.027344 C 247.085938 199.164062 247.585938 197.265625 246.722656 195.792969 C 245.859375 194.316406 243.960938 193.820312 242.488281 194.683594 C 241.011719 195.542969 240.515625 197.441406 241.378906 198.917969 Z M 142.449219 113.921875 C 144.089844 114.402344 145.808594 113.460938 146.289062 111.820312 C 146.769531 110.183594 145.828125 108.464844 144.1875 107.984375 C 142.550781 107.503906 140.828125 108.445312 140.351562 110.082031 C 139.867188 111.722656 140.808594 113.441406 142.449219 113.921875 Z M 377.253906 311.757812 C 378.960938 311.664062 380.269531 310.203125 380.179688 308.5 C 380.085938 306.792969 378.625 305.484375 376.921875 305.574219 C 375.214844 305.667969 373.90625 307.125 373.996094 308.832031 C 374.089844 310.539062 375.546875 311.847656 377.253906 311.757812 Z M 235.046875 188.371094 C 235.945312 189.824219 237.855469 190.273438 239.308594 189.371094 C 240.757812 188.472656 241.207031 186.5625 240.308594 185.113281 C 239.410156 183.660156 237.5 183.210938 236.046875 184.109375 C 234.59375 185.011719 234.148438 186.917969 235.046875 188.371094 Z M 153.945312 117.789062 C 155.542969 118.398438 157.332031 117.597656 157.941406 116.003906 C 158.550781 114.40625 157.75 112.617188 156.152344 112.007812 C 154.558594 111.398438 152.769531 112.199219 152.160156 113.792969 C 151.550781 115.390625 152.347656 117.179688 153.945312 117.789062 Z M 228.375 178.164062 C 229.355469 179.558594 231.289062 179.894531 232.6875 178.910156 C 234.082031 177.929688 234.417969 175.996094 233.4375 174.601562 C 232.453125 173.203125 230.519531 172.867188 229.125 173.851562 C 227.726562 174.832031 227.390625 176.765625 228.375 178.164062 Z M 165.070312 122.585938 C 166.609375 123.328125 168.460938 122.679688 169.203125 121.144531 C 169.945312 119.605469 169.296875 117.753906 167.761719 117.011719 C 166.222656 116.269531 164.371094 116.914062 163.628906 118.453125 C 162.886719 119.992188 163.53125 121.84375 165.070312 122.585938 Z M 389.828125 310.542969 C 391.523438 310.3125 392.707031 308.746094 392.472656 307.054688 C 392.238281 305.363281 390.675781 304.179688 388.984375 304.414062 C 387.292969 304.644531 386.105469 306.210938 386.339844 307.902344 C 386.574219 309.59375 388.136719 310.777344 389.828125 310.542969 Z M 221.023438 168.480469 C 222.101562 169.804688 224.054688 170 225.378906 168.921875 C 226.703125 167.84375 226.898438 165.890625 225.820312 164.566406 C 224.738281 163.242188 222.789062 163.046875 221.464844 164.125 C 220.140625 165.203125 219.945312 167.15625 221.023438 168.480469 Z M 175.730469 128.316406 C 177.195312 129.191406 179.097656 128.710938 179.972656 127.242188 C 180.847656 125.773438 180.367188 123.875 178.898438 123 C 177.433594 122.125 175.53125 122.605469 174.65625 124.074219 C 173.78125 125.542969 174.261719 127.441406 175.730469 128.316406 Z M 213.019531 159.308594 C 214.183594 160.558594 216.140625 160.628906 217.390625 159.460938 C 218.640625 158.300781 218.710938 156.339844 217.546875 155.089844 C 216.382812 153.839844 214.421875 153.769531 213.171875 154.933594 C 211.925781 156.097656 211.855469 158.058594 213.019531 159.308594 Z M 185.839844 134.96875 C 187.222656 135.96875 189.160156 135.65625 190.160156 134.273438 C 191.160156 132.890625 190.851562 130.953125 189.46875 129.953125 C 188.082031 128.953125 186.148438 129.261719 185.144531 130.644531 C 184.144531 132.03125 184.453125 133.964844 185.839844 134.96875 Z M 204.441406 150.648438 C 205.675781 151.824219 207.636719 151.773438 208.816406 150.535156 C 209.992188 149.300781 209.941406 147.339844 208.703125 146.160156 C 207.464844 144.984375 205.507812 145.035156 204.328125 146.273438 C 203.152344 147.511719 203.203125 149.46875 204.441406 150.648438 Z M 195.359375 142.492188 C 196.664062 143.597656 198.617188 143.441406 199.722656 142.136719 C 200.828125 140.835938 200.667969 138.878906 199.367188 137.773438 C 198.0625 136.667969 196.109375 136.828125 195.003906 138.132812 C 193.898438 139.433594 194.058594 141.386719 195.359375 142.492188 Z M 402.253906 308.324219 C 403.921875 307.957031 404.980469 306.304688 404.613281 304.636719 C 404.246094 302.96875 402.59375 301.910156 400.925781 302.277344 C 399.257812 302.644531 398.199219 304.296875 398.566406 305.964844 C 398.933594 307.632812 400.585938 308.691406 402.253906 308.324219 Z M 414.472656 305.109375 C 416.105469 304.601562 417.019531 302.867188 416.515625 301.234375 C 416.011719 299.605469 414.277344 298.6875 412.644531 299.195312 C 411.011719 299.699219 410.097656 301.433594 410.601562 303.066406 C 411.105469 304.695312 412.839844 305.613281 414.472656 305.109375 Z M 426.40625 300.765625 C 427.972656 300.09375 428.703125 298.273438 428.03125 296.703125 C 427.359375 295.132812 425.539062 294.402344 423.96875 295.074219 C 422.398438 295.75 421.667969 297.566406 422.339844 299.140625 C 423.011719 300.707031 424.835938 301.4375 426.40625 300.765625 Z M 437.886719 294.5625 C 439.269531 293.554688 439.570312 291.617188 438.566406 290.238281 C 437.558594 288.859375 435.621094 288.554688 434.242188 289.5625 C 432.859375 290.570312 432.558594 292.503906 433.5625 293.886719 C 434.570312 295.265625 436.507812 295.570312 437.886719 294.5625 Z M 437.886719 294.5625 " fill-opacity="1" fill-rule="evenodd"/></g></g></g></svg>