<svg xmlns="http://www.w3.org/2000/svg" xmlns:xlink="http://www.w3.org/1999/xlink" width="100" zoomAndPan="magnify" viewBox="0 0 75 74.999997" height="100" preserveAspectRatio="xMidYMid meet" version="1.0"><defs><clipPath id="008f0af454"><path d="M 9.726562 22.59375 L 65.203125 22.59375 L 65.203125 60.277344 L 9.726562 60.277344 Z M 9.726562 22.59375 " clip-rule="nonzero"/></clipPath><clipPath id="07bf674c88"><path d="M 16 14.707031 L 33 14.707031 L 33 38 L 16 38 Z M 16 14.707031 " clip-rule="nonzero"/></clipPath></defs><path fill="#d62d1f" d="M 21.117188 0 L 21.117188 5.785156 L 5.785156 5.785156 L 5.785156 21.117188 L 0 21.117188 L 0 0 Z M 21.117188 0 " fill-opacity="1" fill-rule="nonzero"/><path stroke-linecap="butt" transform="matrix(0.0694444, 0, 0, 0.0694444, 0.0000015, -0.000001)" fill="none" stroke-linejoin="miter" d="M 44.493732 304.087541 L 44.493732 45.506268 L 304.087505 45.506268 " stroke="#ffffff" stroke-width="3" stroke-opacity="1" stroke-miterlimit="10"/><path fill="#ffa701" d="M 53.882812 0 L 53.882812 5.785156 L 69.214844 5.785156 L 69.214844 21.117188 L 75 21.117188 L 75 0 Z M 53.882812 0 " fill-opacity="1" fill-rule="nonzero"/><path stroke-linecap="butt" transform="matrix(0.0694444, 0, 0, 0.0694444, 0.0000015, -0.000001)" fill="none" stroke-linejoin="miter" d="M 1035.50632 304.087541 L 1035.50632 45.506268 L 775.912547 45.506268 " stroke="#ffffff" stroke-width="3" stroke-opacity="1" stroke-miterlimit="10"/><path fill="#0057e6" d="M 53.882812 75 L 53.882812 69.214844 L 69.214844 69.214844 L 69.214844 53.882812 L 75 53.882812 L 75 75 Z M 53.882812 75 " fill-opacity="1" fill-rule="nonzero"/><path stroke-linecap="butt" transform="matrix(0.0694444, 0, 0, 0.0694444, 0.0000015, -0.000001)" fill="none" stroke-linejoin="miter" d="M 1035.50632 775.912583 L 1035.50632 1034.493856 L 775.912547 1034.493856 " stroke="#ffffff" stroke-width="3" stroke-opacity="1" stroke-miterlimit="10"/><path fill="#008744" d="M 21.117188 75 L 21.117188 69.214844 L 5.785156 69.214844 L 5.785156 53.882812 L 0 53.882812 L 0 75 Z M 21.117188 75 " fill-opacity="1" fill-rule="nonzero"/><path stroke-linecap="butt" transform="matrix(0.0694444, 0, 0, 0.0694444, 0.0000015, -0.000001)" fill="none" stroke-linejoin="miter" d="M 44.493732 775.912583 L 44.493732 1034.493856 L 304.087505 1034.493856 " stroke="#ffffff" stroke-width="3" stroke-opacity="1" stroke-miterlimit="10"/><path fill="#ffffff" d="M 46.132812 32.296875 L 46.246094 33.402344 C 46.609375 33.367188 46.988281 33.347656 47.371094 33.347656 C 47.683594 33.347656 48.007812 33.359375 48.332031 33.382812 L 48.421875 32.277344 C 48.066406 32.25 47.714844 32.238281 47.371094 32.238281 C 46.953125 32.238281 46.535156 32.257812 46.132812 32.296875 " fill-opacity="1" fill-rule="nonzero"/><path fill="#ffffff" d="M 41.757812 33.671875 L 42.332031 34.628906 C 42.929688 34.289062 43.5625 34.011719 44.21875 33.808594 L 43.871094 32.75 C 43.136719 32.980469 42.425781 33.289062 41.757812 33.671875 " fill-opacity="1" fill-rule="nonzero"/><path fill="#ffffff" d="M 26.5625 48.828125 C 27.3125 48.679688 28.050781 48.472656 28.753906 48.207031 L 28.347656 47.171875 C 27.703125 47.414062 27.023438 47.605469 26.335938 47.742188 L 26.5625 48.828125 " fill-opacity="1" fill-rule="nonzero"/><path fill="#ffffff" d="M 38.347656 36.640625 L 39.242188 37.324219 C 39.6875 36.769531 40.167969 36.265625 40.664062 35.828125 L 39.902344 35.003906 C 39.355469 35.484375 38.832031 36.035156 38.347656 36.640625 " fill-opacity="1" fill-rule="nonzero"/><path fill="#ffffff" d="M 22.132812 47.945312 L 22.03125 49.050781 C 22.539062 49.097656 23.046875 49.121094 23.542969 49.121094 C 23.796875 49.121094 24.050781 49.113281 24.300781 49.101562 L 24.246094 47.992188 C 24.015625 48.003906 23.777344 48.007812 23.542969 48.007812 C 23.082031 48.007812 22.609375 47.988281 22.132812 47.945312 " fill-opacity="1" fill-rule="nonzero"/><path fill="#ffffff" d="M 31.960938 45.109375 C 31.410156 45.546875 30.832031 45.941406 30.238281 46.28125 L 30.8125 47.242188 C 31.457031 46.871094 32.085938 46.441406 32.679688 45.964844 L 31.960938 45.109375 " fill-opacity="1" fill-rule="nonzero"/><path fill="#ffffff" d="M 34.84375 42.089844 C 34.414062 42.660156 33.960938 43.199219 33.496094 43.691406 L 34.332031 44.445312 C 34.824219 43.921875 35.308594 43.351562 35.761719 42.742188 L 34.84375 42.089844 " fill-opacity="1" fill-rule="nonzero"/><path fill="#ffffff" d="M 17.621094 48.152344 C 18.34375 48.382812 19.078125 48.574219 19.796875 48.722656 L 20.03125 47.636719 C 19.351562 47.496094 18.660156 47.3125 17.972656 47.09375 L 17.621094 48.152344 " fill-opacity="1" fill-rule="nonzero"/><path fill="#ffffff" d="M 54.457031 35.046875 C 55.089844 35.324219 55.738281 35.640625 56.382812 35.984375 L 56.925781 35.011719 C 56.257812 34.652344 55.582031 34.324219 54.925781 34.035156 L 54.457031 35.046875 " fill-opacity="1" fill-rule="nonzero"/><path fill="#ffffff" d="M 50.417969 33.695312 C 51.082031 33.839844 51.773438 34.035156 52.46875 34.269531 L 52.839844 33.21875 C 52.105469 32.972656 51.375 32.765625 50.667969 32.613281 L 50.417969 33.695312 " fill-opacity="1" fill-rule="nonzero"/><g clip-path="url(#008f0af454)"><path fill="#ffffff" d="M 51.03125 44.476562 L 50.425781 44.515625 L 49.976562 44.929688 L 42.410156 51.910156 L 35.378906 30.753906 L 42.859375 24.371094 L 53.378906 24.765625 L 58.914062 36.160156 C 58.890625 36.148438 58.871094 36.132812 58.847656 36.121094 L 58.242188 37.058594 C 58.789062 37.398438 59.335938 37.757812 59.871094 38.132812 L 62.597656 43.746094 Z M 54.472656 23.085938 L 42.253906 22.628906 L 34.089844 29.597656 L 32.070312 29.242188 C 31.808594 29.753906 31.519531 30.285156 31.207031 30.832031 L 33.742188 31.28125 L 36.480469 39.523438 C 36.328125 39.804688 36.167969 40.078125 36.011719 40.34375 L 36.929688 40.871094 L 40.8125 52.550781 L 29.066406 52.011719 L 28.558594 51.988281 L 28.121094 52.246094 L 18.792969 57.703125 L 15.554688 47.285156 L 15.972656 46.351562 C 15.667969 46.222656 15.390625 46.09375 15.152344 45.980469 L 11.753906 35.050781 L 18.109375 30.949219 C 17.808594 30.429688 17.535156 29.925781 17.28125 29.4375 L 9.726562 34.316406 L 17.796875 60.277344 L 28.988281 53.730469 L 42.308594 54.339844 L 51.140625 46.191406 L 65.261719 45.296875 L 54.472656 23.085938 " fill-opacity="1" fill-rule="nonzero"/></g><g clip-path="url(#07bf674c88)"><path fill="#ffffff" d="M 20.324219 22.105469 C 20.324219 19.730469 22.25 17.804688 24.625 17.804688 C 27 17.804688 28.925781 19.730469 28.925781 22.105469 C 28.925781 24.480469 27 26.410156 24.625 26.410156 C 22.25 26.410156 20.324219 24.480469 20.324219 22.105469 Z M 32.519531 22.601562 C 32.519531 18.242188 28.984375 14.707031 24.625 14.707031 C 20.265625 14.707031 16.730469 18.242188 16.730469 22.601562 C 16.730469 27.691406 24.625 37.648438 24.625 37.648438 C 24.625 37.648438 32.519531 27.691406 32.519531 22.601562 " fill-opacity="1" fill-rule="nonzero"/></g></svg>