<svg xmlns="http://www.w3.org/2000/svg" xmlns:xlink="http://www.w3.org/1999/xlink" width="500" zoomAndPan="magnify" viewBox="0 0 375 374.999991" height="500" preserveAspectRatio="xMidYMid meet" version="1.0"><defs><g/><clipPath id="13a31b4969"><path d="M 101.933594 101.933594 L 273.066406 101.933594 L 273.066406 273.066406 L 101.933594 273.066406 Z M 101.933594 101.933594 " clip-rule="nonzero"/></clipPath><clipPath id="4cc1053310"><path d="M 119.183594 101.933594 L 255.816406 101.933594 C 260.390625 101.933594 264.777344 103.75 268.011719 106.988281 C 271.25 110.222656 273.066406 114.609375 273.066406 119.183594 L 273.066406 255.816406 C 273.066406 260.390625 271.25 264.777344 268.011719 268.011719 C 264.777344 271.25 260.390625 273.066406 255.816406 273.066406 L 119.183594 273.066406 C 114.609375 273.066406 110.222656 271.25 106.988281 268.011719 C 103.75 264.777344 101.933594 260.390625 101.933594 255.816406 L 101.933594 119.183594 C 101.933594 114.609375 103.75 110.222656 106.988281 106.988281 C 110.222656 103.75 114.609375 101.933594 119.183594 101.933594 Z M 119.183594 101.933594 " clip-rule="nonzero"/></clipPath><clipPath id="f4d882d379"><path d="M 135.851562 163.597656 L 158.6875 163.597656 L 158.6875 242 L 135.851562 242 Z M 135.851562 163.597656 " clip-rule="nonzero"/></clipPath><clipPath id="7131aacff5"><path d="M 134.976562 132.964844 L 159.570312 132.964844 L 159.570312 157.558594 L 134.976562 157.558594 Z M 134.976562 132.964844 " clip-rule="nonzero"/></clipPath><clipPath id="66952a0386"><path d="M 147.273438 132.964844 C 140.484375 132.964844 134.976562 138.46875 134.976562 145.261719 C 134.976562 152.054688 140.484375 157.558594 147.273438 157.558594 C 154.066406 157.558594 159.570312 152.054688 159.570312 145.261719 C 159.570312 138.46875 154.066406 132.964844 147.273438 132.964844 Z M 147.273438 132.964844 " clip-rule="nonzero"/></clipPath></defs><g clip-path="url(#13a31b4969)"><g clip-path="url(#4cc1053310)"><path fill="#d9d9d9" d="M 101.933594 101.933594 L 273.066406 101.933594 L 273.066406 273.066406 L 101.933594 273.066406 Z M 101.933594 101.933594 " fill-opacity="1" fill-rule="nonzero"/></g></g><g clip-path="url(#f4d882d379)"><path fill="#ffffff" d="M 158.6875 163.597656 L 158.6875 242 L 135.851562 242 L 135.851562 163.597656 Z M 158.6875 163.597656 " fill-opacity="1" fill-rule="nonzero"/></g><g clip-path="url(#7131aacff5)"><g clip-path="url(#66952a0386)"><path fill="#ffffff" d="M 134.976562 132.964844 L 159.570312 132.964844 L 159.570312 157.558594 L 134.976562 157.558594 Z M 134.976562 132.964844 " fill-opacity="1" fill-rule="nonzero"/></g></g><g fill="#ffffff" fill-opacity="1"><g transform="translate(159.570683, 235.741247)"><g><path d="M 11.234375 0 L 11.234375 -77.9375 L 30.03125 -77.9375 L 30.03125 -66.5 L 31.515625 -66.140625 C 36.367188 -74.992188 44.238281 -79.421875 55.125 -79.421875 C 64.113281 -79.421875 70.71875 -76.972656 74.9375 -72.078125 C 79.15625 -67.179688 81.265625 -60.046875 81.265625 -50.671875 L 81.265625 0 L 61.6875 0 L 61.6875 -48.265625 C 61.6875 -53.441406 60.648438 -57.171875 58.578125 -59.453125 C 56.503906 -61.742188 53.179688 -62.890625 48.609375 -62.890625 C 43.003906 -62.890625 38.632812 -61.078125 35.5 -57.453125 C 32.375 -53.828125 30.8125 -48.125 30.8125 -40.34375 L 30.8125 0 Z M 11.234375 0 "/></g></g></g></svg>