<svg xmlns="http://www.w3.org/2000/svg" xmlns:xlink="http://www.w3.org/1999/xlink" width="500" zoomAndPan="magnify" viewBox="0 0 375 374.999991" height="500" preserveAspectRatio="xMidYMid meet" version="1.0"><defs><filter x="0%" y="0%" width="100%" height="100%" id="7dbc942274"><feColorMatrix values="0 0 0 0 1 0 0 0 0 1 0 0 0 0 1 0 0 0 1 0" color-interpolation-filters="sRGB"/></filter><mask id="87c2151065"><g filter="url(#7dbc942274)"><rect x="-37.5" width="450" fill="#000000" y="-37.499999" height="449.999989" fill-opacity="0.17"/></g></mask><clipPath id="693000e6f3"><path d="M 0.308594 0.308594 L 202.691406 0.308594 L 202.691406 202.691406 L 0.308594 202.691406 Z M 0.308594 0.308594 " clip-rule="nonzero"/></clipPath><clipPath id="a9eec2b8bd"><path d="M 101.5 0.308594 C 45.613281 0.308594 0.308594 45.613281 0.308594 101.5 C 0.308594 157.386719 45.613281 202.691406 101.5 202.691406 C 157.386719 202.691406 202.691406 157.386719 202.691406 101.5 C 202.691406 45.613281 157.386719 0.308594 101.5 0.308594 Z M 101.5 0.308594 " clip-rule="nonzero"/></clipPath><clipPath id="a0438142fa"><rect x="0" width="203" y="0" height="203"/></clipPath><mask id="3605fa9954"><g filter="url(#7dbc942274)"><rect x="-37.5" width="450" fill="#000000" y="-37.499999" height="449.999989" fill-opacity="0.57"/></g></mask><clipPath id="7f7fd6487b"><path d="M 0.472656 0.472656 L 170.527344 0.472656 L 170.527344 170.527344 L 0.472656 170.527344 Z M 0.472656 0.472656 " clip-rule="nonzero"/></clipPath><clipPath id="226cada8f0"><path d="M 85.5 0.472656 C 38.539062 0.472656 0.472656 38.539062 0.472656 85.5 C 0.472656 132.460938 38.539062 170.527344 85.5 170.527344 C 132.460938 170.527344 170.527344 132.460938 170.527344 85.5 C 170.527344 38.539062 132.460938 0.472656 85.5 0.472656 Z M 85.5 0.472656 " clip-rule="nonzero"/></clipPath><clipPath id="ba860edb20"><rect x="0" width="171" y="0" height="171"/></clipPath><mask id="f4a9fe1aea"><g filter="url(#7dbc942274)"><rect x="-37.5" width="450" fill="#000000" y="-37.499999" height="449.999989" fill-opacity="0.76"/></g></mask><clipPath id="6d7157c909"><path d="M 0.515625 0.515625 L 136.484375 0.515625 L 136.484375 136.484375 L 0.515625 136.484375 Z M 0.515625 0.515625 " clip-rule="nonzero"/></clipPath><clipPath id="d4bfa03431"><path d="M 68.5 0.515625 C 30.953125 0.515625 0.515625 30.953125 0.515625 68.5 C 0.515625 106.046875 30.953125 136.484375 68.5 136.484375 C 106.046875 136.484375 136.484375 106.046875 136.484375 68.5 C 136.484375 30.953125 106.046875 0.515625 68.5 0.515625 Z M 68.5 0.515625 " clip-rule="nonzero"/></clipPath><clipPath id="cb0dc61a77"><rect x="0" width="137" y="0" height="137"/></clipPath></defs><g mask="url(#87c2151065)"><g transform="matrix(1, 0, 0, 1, 86, 86)"><g clip-path="url(#a0438142fa)"><g clip-path="url(#693000e6f3)"><g clip-path="url(#a9eec2b8bd)"><path fill="#f7670d" d="M 0.308594 0.308594 L 202.691406 0.308594 L 202.691406 202.691406 L 0.308594 202.691406 Z M 0.308594 0.308594 " fill-opacity="1" fill-rule="nonzero"/></g></g></g></g></g><g mask="url(#3605fa9954)"><g transform="matrix(1, 0, 0, 1, 102, 102)"><g clip-path="url(#ba860edb20)"><g clip-path="url(#7f7fd6487b)"><g clip-path="url(#226cada8f0)"><path fill="#f7670d" d="M 0.472656 0.472656 L 170.527344 0.472656 L 170.527344 170.527344 L 0.472656 170.527344 Z M 0.472656 0.472656 " fill-opacity="1" fill-rule="nonzero"/></g></g></g></g></g><g mask="url(#f4a9fe1aea)"><g transform="matrix(1, 0, 0, 1, 119, 119)"><g clip-path="url(#cb0dc61a77)"><g clip-path="url(#6d7157c909)"><g clip-path="url(#d4bfa03431)"><path fill="#f7670d" d="M 0.515625 0.515625 L 136.484375 0.515625 L 136.484375 136.484375 L 0.515625 136.484375 Z M 0.515625 0.515625 " fill-opacity="1" fill-rule="nonzero"/></g></g></g></g></g></svg>