<svg xmlns="http://www.w3.org/2000/svg" xmlns:xlink="http://www.w3.org/1999/xlink" width="120" zoomAndPan="magnify" viewBox="0 0 90 37.5" height="50" preserveAspectRatio="xMidYMid meet" version="1.0"><defs><filter x="0%" y="0%" width="100%" height="100%" id="b8c3a19923"><feColorMatrix values="0 0 0 0 1 0 0 0 0 1 0 0 0 0 1 0 0 0 1 0" color-interpolation-filters="sRGB"/></filter><g/><mask id="14246078b5"><g filter="url(#b8c3a19923)"><rect x="-9" width="108" fill="#000000" y="-3.75" height="45" fill-opacity="0.67"/></g></mask><clipPath id="7fa97fd78a"><path d="M 0.679688 1.121094 L 9.511719 1.121094 L 9.511719 9.972656 L 0.679688 9.972656 Z M 0.679688 1.121094 " clip-rule="nonzero"/></clipPath><clipPath id="700bfd90a2"><rect x="0" width="10" y="0" height="10"/></clipPath><mask id="d9a505bde9"><g filter="url(#b8c3a19923)"><rect x="-9" width="108" fill="#000000" y="-3.75" height="45" fill-opacity="0.66"/></g></mask><clipPath id="f1b863053b"><path d="M 0.109375 0.550781 L 2.011719 0.550781 L 2.011719 2.453125 L 0.109375 2.453125 Z M 0.109375 0.550781 " clip-rule="nonzero"/></clipPath><clipPath id="a7000f196d"><path d="M 1.0625 0.550781 C 0.535156 0.550781 0.109375 0.976562 0.109375 1.503906 C 0.109375 2.027344 0.535156 2.453125 1.0625 2.453125 C 1.585938 2.453125 2.011719 2.027344 2.011719 1.503906 C 2.011719 0.976562 1.585938 0.550781 1.0625 0.550781 Z M 1.0625 0.550781 " clip-rule="nonzero"/></clipPath><clipPath id="fcd920e9ea"><rect x="0" width="3" y="0" height="3"/></clipPath><mask id="fa291a77ac"><g filter="url(#b8c3a19923)"><rect x="-9" width="108" fill="#000000" y="-3.75" height="45" fill-opacity="0.33"/></g></mask><clipPath id="c800267545"><path d="M 0.589844 0.382812 L 2.660156 0.382812 L 2.660156 2.453125 L 0.589844 2.453125 Z M 0.589844 0.382812 " clip-rule="nonzero"/></clipPath><clipPath id="7ce4263438"><path d="M 1.625 0.382812 C 1.050781 0.382812 0.589844 0.847656 0.589844 1.417969 C 0.589844 1.992188 1.050781 2.453125 1.625 2.453125 C 2.195312 2.453125 2.660156 1.992188 2.660156 1.417969 C 2.660156 0.847656 2.195312 0.382812 1.625 0.382812 Z M 1.625 0.382812 " clip-rule="nonzero"/></clipPath><clipPath id="208305ebdb"><rect x="0" width="3" y="0" height="3"/></clipPath><mask id="a3f25f51ce"><g filter="url(#b8c3a19923)"><rect x="-9" width="108" fill="#000000" y="-3.75" height="45" fill-opacity="0.34"/></g></mask><clipPath id="0e1be0b3ed"><path d="M 0.941406 0.382812 L 3.015625 0.382812 L 3.015625 2.453125 L 0.941406 2.453125 Z M 0.941406 0.382812 " clip-rule="nonzero"/></clipPath><clipPath id="496f02a0a1"><path d="M 1.980469 0.382812 C 1.40625 0.382812 0.941406 0.847656 0.941406 1.417969 C 0.941406 1.992188 1.40625 2.453125 1.980469 2.453125 C 2.550781 2.453125 3.015625 1.992188 3.015625 1.417969 C 3.015625 0.847656 2.550781 0.382812 1.980469 0.382812 Z M 1.980469 0.382812 " clip-rule="nonzero"/></clipPath><clipPath id="e09fabfe69"><rect x="0" width="4" y="0" height="3"/></clipPath><mask id="bf05fd841f"><g filter="url(#b8c3a19923)"><rect x="-9" width="108" fill="#000000" y="-3.75" height="45" fill-opacity="0.33"/></g></mask><clipPath id="6593edda04"><path d="M 0.453125 0.382812 L 2.527344 0.382812 L 2.527344 2.453125 L 0.453125 2.453125 Z M 0.453125 0.382812 " clip-rule="nonzero"/></clipPath><clipPath id="5b89b89687"><path d="M 1.492188 0.382812 C 0.917969 0.382812 0.453125 0.847656 0.453125 1.417969 C 0.453125 1.992188 0.917969 2.453125 1.492188 2.453125 C 2.0625 2.453125 2.527344 1.992188 2.527344 1.417969 C 2.527344 0.847656 2.0625 0.382812 1.492188 0.382812 Z M 1.492188 0.382812 " clip-rule="nonzero"/></clipPath><clipPath id="1fb67d2cf4"><rect x="0" width="3" y="0" height="3"/></clipPath><mask id="08e7e912c1"><g filter="url(#b8c3a19923)"><rect x="-9" width="108" fill="#000000" y="-3.75" height="45" fill-opacity="0.55"/></g></mask><clipPath id="1516fb33f2"><path d="M 1 0.105469 L 6 0.105469 L 6 4 L 1 4 Z M 1 0.105469 " clip-rule="nonzero"/></clipPath><clipPath id="3ccc8e7472"><path d="M 6 0.105469 L 13 0.105469 L 13 4 L 6 4 Z M 6 0.105469 " clip-rule="nonzero"/></clipPath><clipPath id="17e8381c91"><rect x="0" width="14" y="0" height="5"/></clipPath></defs><g mask="url(#14246078b5)"><g transform="matrix(1, 0, 0, 1, 24, 13)"><g clip-path="url(#700bfd90a2)"><g clip-path="url(#7fa97fd78a)"><path fill="#ffffff" d="M 5.058594 1.121094 C 6.265625 1.121094 7.359375 1.613281 8.152344 2.402344 C 8.945312 3.195312 9.433594 4.289062 9.433594 5.5 C 9.433594 6.707031 8.945312 7.800781 8.152344 8.59375 C 7.359375 9.386719 6.265625 9.875 5.058594 9.875 C 3.847656 9.875 2.753906 9.386719 1.960938 8.59375 C 1.171875 7.800781 0.679688 6.707031 0.679688 5.5 C 0.679688 4.289062 1.171875 3.195312 1.960938 2.402344 C 2.753906 1.613281 3.847656 1.121094 5.058594 1.121094 Z M 7.808594 2.75 C 7.105469 2.042969 6.132812 1.609375 5.058594 1.609375 C 3.984375 1.609375 3.011719 2.042969 2.304688 2.75 C 1.601562 3.453125 1.167969 4.425781 1.167969 5.5 C 1.167969 6.574219 1.601562 7.546875 2.304688 8.25 C 3.011719 8.953125 3.984375 9.390625 5.058594 9.390625 C 6.132812 9.390625 7.105469 8.953125 7.808594 8.25 C 8.511719 7.546875 8.949219 6.574219 8.949219 5.5 C 8.949219 4.425781 8.511719 3.453125 7.808594 2.75 " fill-opacity="1" fill-rule="nonzero"/></g></g></g></g><g mask="url(#d9a505bde9)"><g transform="matrix(1, 0, 0, 1, 28, 17)"><g clip-path="url(#fcd920e9ea)"><g clip-path="url(#f1b863053b)"><g clip-path="url(#a7000f196d)"><path fill="#ffffff" d="M 0.109375 0.550781 L 2.011719 0.550781 L 2.011719 2.453125 L 0.109375 2.453125 Z M 0.109375 0.550781 " fill-opacity="1" fill-rule="nonzero"/></g></g></g></g></g><g mask="url(#fa291a77ac)"><g transform="matrix(1, 0, 0, 1, 45, 17)"><g clip-path="url(#208305ebdb)"><g clip-path="url(#c800267545)"><g clip-path="url(#7ce4263438)"><path fill="#ffffff" d="M 0.589844 0.382812 L 2.660156 0.382812 L 2.660156 2.453125 L 0.589844 2.453125 Z M 0.589844 0.382812 " fill-opacity="1" fill-rule="nonzero"/></g></g></g></g></g><g mask="url(#a3f25f51ce)"><g transform="matrix(1, 0, 0, 1, 63, 17)"><g clip-path="url(#e09fabfe69)"><g clip-path="url(#0e1be0b3ed)"><g clip-path="url(#496f02a0a1)"><path fill="#ffffff" d="M 0.941406 0.382812 L 3.015625 0.382812 L 3.015625 2.453125 L 0.941406 2.453125 Z M 0.941406 0.382812 " fill-opacity="1" fill-rule="nonzero"/></g></g></g></g></g><g mask="url(#bf05fd841f)"><g transform="matrix(1, 0, 0, 1, 82, 17)"><g clip-path="url(#1fb67d2cf4)"><g clip-path="url(#6593edda04)"><g clip-path="url(#5b89b89687)"><path fill="#ffffff" d="M 0.453125 0.382812 L 2.527344 0.382812 L 2.527344 2.453125 L 0.453125 2.453125 Z M 0.453125 0.382812 " fill-opacity="1" fill-rule="nonzero"/></g></g></g></g></g><g mask="url(#08e7e912c1)"><g transform="matrix(1, 0, 0, 1, 3, 16)"><g clip-path="url(#17e8381c91)"><g clip-path="url(#1516fb33f2)"><g fill="#ffffff" fill-opacity="1"><g transform="translate(0.924484, 3.686548)"><g><path d="M 1.671875 0 L 0.359375 0 L 0.359375 -3.15625 L 2.5 -3.15625 C 3.019531 -3.15625 3.4375 -3.113281 3.75 -3.03125 C 4.0625 -2.957031 4.289062 -2.835938 4.4375 -2.671875 C 4.582031 -2.503906 4.65625 -2.289062 4.65625 -2.03125 C 4.65625 -1.769531 4.582031 -1.554688 4.4375 -1.390625 C 4.289062 -1.222656 4.0625 -1.097656 3.75 -1.015625 C 3.4375 -0.941406 3.019531 -0.90625 2.5 -0.90625 L 1.671875 -0.90625 Z M 1.671875 -1.6875 L 2.4375 -1.6875 C 2.644531 -1.6875 2.804688 -1.691406 2.921875 -1.703125 C 3.046875 -1.722656 3.132812 -1.75 3.1875 -1.78125 C 3.25 -1.8125 3.285156 -1.847656 3.296875 -1.890625 C 3.316406 -1.929688 3.328125 -1.976562 3.328125 -2.03125 C 3.328125 -2.082031 3.316406 -2.128906 3.296875 -2.171875 C 3.285156 -2.210938 3.25 -2.25 3.1875 -2.28125 C 3.132812 -2.3125 3.046875 -2.332031 2.921875 -2.34375 C 2.804688 -2.363281 2.644531 -2.375 2.4375 -2.375 L 1.671875 -2.375 Z M 1.671875 -1.6875 "/></g></g></g></g><g clip-path="url(#3ccc8e7472)"><g fill="#ffffff" fill-opacity="1"><g transform="translate(6.251884, 3.686548)"><g><path d="M 6.34375 0 L 5.015625 0 L 5.015625 -2.015625 L 3.84375 0 L 2.859375 0 L 1.671875 -2.015625 L 1.671875 0 L 0.359375 0 L 0.359375 -3.15625 L 1.921875 -3.15625 L 3.34375 -0.90625 L 4.765625 -3.15625 L 6.34375 -3.15625 Z M 6.34375 0 "/></g></g></g></g></g></g></g></svg>