<svg xmlns="http://www.w3.org/2000/svg" xmlns:xlink="http://www.w3.org/1999/xlink" width="500" zoomAndPan="magnify" viewBox="0 0 375 374.999991" height="500" preserveAspectRatio="xMidYMid meet" version="1.0"><defs><clipPath id="c8025ed92f"><path d="M 11.765625 92.082031 L 167 92.082031 L 167 282.582031 L 11.765625 282.582031 Z M 11.765625 92.082031 " clip-rule="nonzero"/></clipPath><clipPath id="7a7466fb44"><path d="M 141.261719 92.082031 L 366.261719 92.082031 L 366.261719 282.582031 L 141.261719 282.582031 Z M 141.261719 92.082031 " clip-rule="nonzero"/></clipPath></defs><g clip-path="url(#c8025ed92f)"><path fill="#000000" d="M 11.769531 282.519531 L 11.769531 162.492188 L 60.585938 162.492188 L 60.585938 180.714844 L 103.546875 180.734375 C 107.480469 180.734375 111.164062 179.210938 113.921875 176.441406 C 116.691406 173.671875 118.207031 169.992188 118.203125 166.078125 L 118.183594 155.554688 C 118.167969 147.519531 111.617188 140.964844 103.578125 140.949219 L 63.058594 140.96875 L 29.648438 92.199219 L 103.632812 92.175781 C 138.496094 92.242188 166.902344 120.636719 166.964844 155.46875 L 166.980469 165.992188 C 167.011719 182.953125 160.429688 198.902344 148.449219 210.902344 C 136.464844 222.90625 120.527344 229.515625 103.566406 229.515625 L 60.585938 229.550781 L 60.585938 282.519531 Z M 11.769531 282.519531 " fill-opacity="1" fill-rule="nonzero"/></g><g clip-path="url(#7a7466fb44)"><path fill="#000000" d="M 274.210938 149.792969 L 141.300781 282.582031 L 141.300781 224.972656 L 274.210938 92.082031 Z M 233.3125 224.765625 L 233.3125 282.582031 L 325.328125 190.757812 L 325.328125 282.582031 L 366.226562 241.722656 L 366.226562 92.082031 Z M 233.3125 224.765625 " fill-opacity="1" fill-rule="nonzero"/></g></svg>