<svg xmlns="http://www.w3.org/2000/svg" xmlns:xlink="http://www.w3.org/1999/xlink" width="200" zoomAndPan="magnify" viewBox="0 0 150 149.999998" height="200" preserveAspectRatio="xMidYMid meet" version="1.0"><defs><clipPath id="c749102ec6"><path d="M 12.484375 75 L 137.585938 75 L 137.585938 75.601562 L 12.484375 75.601562 Z M 12.484375 75 " clip-rule="nonzero"/></clipPath><clipPath id="45f5c11ffe"><path d="M 12.484375 79.082031 L 14.285156 79.082031 L 14.285156 80.882812 L 12.484375 80.882812 Z M 12.484375 79.082031 " clip-rule="nonzero"/></clipPath></defs><g clip-path="url(#c749102ec6)"><path fill="#d9d9d9" d="M 12.484375 75.023438 L 137.515625 75.023438 L 137.515625 75.597656 L 12.484375 75.597656 Z M 12.484375 75.023438 " fill-opacity="1" fill-rule="nonzero"/></g><g clip-path="url(#45f5c11ffe)"><path fill="#737373" d="M 13.449219 79.082031 C 12.917969 79.082031 12.484375 79.515625 12.484375 80.046875 C 12.484375 80.574219 12.917969 81.007812 13.449219 81.007812 C 13.980469 81.007812 14.410156 80.574219 14.410156 80.046875 C 14.410156 79.515625 13.980469 79.082031 13.449219 79.082031 Z M 13.449219 79.273438 C 13.875 79.273438 14.21875 79.617188 14.21875 80.046875 C 14.21875 80.472656 13.875 80.816406 13.449219 80.816406 C 13.023438 80.816406 12.679688 80.472656 12.679688 80.046875 C 12.679688 79.617188 13.023438 79.273438 13.449219 79.273438 Z M 13.449219 79.5625 C 13.324219 79.5625 13.203125 79.609375 13.109375 79.703125 C 12.921875 79.890625 12.921875 80.199219 13.109375 80.386719 C 13.296875 80.570312 13.601562 80.570312 13.789062 80.386719 L 13.652344 80.25 C 13.539062 80.363281 13.359375 80.363281 13.242188 80.25 C 13.128906 80.136719 13.128906 79.953125 13.242188 79.839844 C 13.359375 79.726562 13.539062 79.726562 13.652344 79.839844 L 13.789062 79.703125 C 13.695312 79.609375 13.570312 79.5625 13.449219 79.5625 Z M 13.449219 79.5625 " fill-opacity="1" fill-rule="nonzero"/></g><path fill="#737373" d="M 15.28125 80.957031 L 15.28125 79.039062 L 15.925781 79.039062 C 16.070312 79.039062 16.195312 79.066406 16.300781 79.121094 C 16.40625 79.175781 16.492188 79.25 16.550781 79.34375 C 16.609375 79.441406 16.636719 79.554688 16.636719 79.683594 C 16.636719 79.816406 16.609375 79.929688 16.550781 80.027344 C 16.492188 80.125 16.40625 80.199219 16.300781 80.25 C 16.195312 80.300781 16.070312 80.328125 15.925781 80.328125 L 15.519531 80.328125 L 15.519531 80.957031 Z M 15.519531 80.101562 L 15.925781 80.101562 C 16.238281 80.101562 16.394531 79.964844 16.394531 79.6875 C 16.394531 79.410156 16.238281 79.269531 15.925781 79.269531 L 15.519531 79.269531 Z M 15.519531 80.101562 " fill-opacity="1" fill-rule="nonzero"/><path fill="#737373" d="M 17.003906 80.957031 L 17.003906 79.539062 L 17.234375 79.539062 L 17.234375 80.957031 Z M 16.929688 79.125 C 16.929688 79.074219 16.945312 79.03125 16.980469 78.996094 C 17.015625 78.960938 17.0625 78.945312 17.117188 78.945312 C 17.175781 78.945312 17.21875 78.960938 17.246094 78.996094 C 17.28125 79.03125 17.296875 79.074219 17.296875 79.125 C 17.296875 79.175781 17.28125 79.21875 17.246094 79.25 C 17.21875 79.285156 17.175781 79.300781 17.117188 79.300781 C 17.0625 79.300781 17.015625 79.285156 16.980469 79.25 C 16.945312 79.21875 16.929688 79.175781 16.929688 79.125 Z M 16.929688 79.125 " fill-opacity="1" fill-rule="nonzero"/><path fill="#737373" d="M 18.355469 80.996094 C 18.210938 80.996094 18.085938 80.964844 17.980469 80.902344 C 17.871094 80.835938 17.785156 80.746094 17.722656 80.632812 C 17.660156 80.519531 17.628906 80.390625 17.628906 80.246094 C 17.628906 80.101562 17.660156 79.96875 17.722656 79.859375 C 17.785156 79.746094 17.871094 79.65625 17.980469 79.59375 C 18.09375 79.53125 18.21875 79.5 18.359375 79.5 C 18.511719 79.5 18.640625 79.539062 18.753906 79.609375 C 18.867188 79.679688 18.953125 79.777344 19.011719 79.902344 C 19.070312 80.027344 19.09375 80.171875 19.09375 80.339844 L 17.859375 80.339844 C 17.875 80.472656 17.929688 80.578125 18.015625 80.65625 C 18.109375 80.738281 18.222656 80.777344 18.359375 80.777344 C 18.453125 80.777344 18.535156 80.757812 18.609375 80.71875 C 18.6875 80.679688 18.75 80.621094 18.792969 80.546875 L 19.054688 80.546875 C 18.996094 80.683594 18.90625 80.792969 18.78125 80.875 C 18.65625 80.957031 18.515625 80.996094 18.355469 80.996094 Z M 17.859375 80.140625 L 18.859375 80.140625 C 18.835938 80.011719 18.777344 79.90625 18.6875 79.832031 C 18.597656 79.757812 18.488281 79.71875 18.359375 79.71875 C 18.226562 79.71875 18.113281 79.757812 18.023438 79.832031 C 17.9375 79.90625 17.882812 80.011719 17.859375 80.140625 Z M 17.859375 80.140625 " fill-opacity="1" fill-rule="nonzero"/><path fill="#737373" d="M 19.480469 80.957031 L 19.480469 79.539062 L 19.667969 79.539062 L 19.695312 79.78125 C 19.746094 79.699219 19.8125 79.640625 19.886719 79.601562 C 19.960938 79.5625 20.058594 79.539062 20.179688 79.539062 L 20.304688 79.539062 L 20.304688 79.75 L 20.167969 79.75 C 20.085938 79.75 20.007812 79.769531 19.9375 79.800781 C 19.867188 79.835938 19.808594 79.894531 19.769531 79.976562 C 19.730469 80.054688 19.710938 80.164062 19.710938 80.296875 L 19.710938 80.957031 Z M 19.480469 80.957031 " fill-opacity="1" fill-rule="nonzero"/><path fill="#737373" d="M 21.292969 80.996094 C 21.148438 80.996094 21.023438 80.964844 20.910156 80.902344 C 20.800781 80.835938 20.71875 80.746094 20.65625 80.632812 C 20.59375 80.519531 20.5625 80.390625 20.5625 80.246094 C 20.5625 80.105469 20.59375 79.976562 20.65625 79.863281 C 20.71875 79.75 20.800781 79.664062 20.910156 79.601562 C 21.023438 79.535156 21.148438 79.5 21.292969 79.5 C 21.40625 79.5 21.515625 79.523438 21.609375 79.570312 C 21.710938 79.613281 21.792969 79.675781 21.859375 79.757812 C 21.929688 79.835938 21.980469 79.929688 22.003906 80.03125 L 21.765625 80.03125 C 21.726562 79.9375 21.664062 79.863281 21.578125 79.808594 C 21.496094 79.75 21.398438 79.71875 21.292969 79.71875 C 21.195312 79.71875 21.109375 79.742188 21.03125 79.789062 C 20.953125 79.832031 20.894531 79.894531 20.855469 79.976562 C 20.8125 80.054688 20.792969 80.144531 20.792969 80.246094 C 20.792969 80.351562 20.8125 80.441406 20.855469 80.519531 C 20.894531 80.601562 20.953125 80.664062 21.03125 80.707031 C 21.109375 80.75 21.195312 80.769531 21.292969 80.769531 C 21.40625 80.769531 21.503906 80.742188 21.59375 80.683594 C 21.679688 80.621094 21.738281 80.539062 21.773438 80.433594 L 22.015625 80.433594 C 21.96875 80.609375 21.882812 80.746094 21.753906 80.84375 C 21.625 80.945312 21.46875 80.996094 21.292969 80.996094 Z M 21.292969 80.996094 " fill-opacity="1" fill-rule="nonzero"/><path fill="#737373" d="M 23.019531 80.996094 C 22.878906 80.996094 22.753906 80.964844 22.644531 80.902344 C 22.535156 80.835938 22.453125 80.746094 22.390625 80.632812 C 22.328125 80.519531 22.296875 80.390625 22.296875 80.246094 C 22.296875 80.101562 22.328125 79.96875 22.390625 79.859375 C 22.453125 79.746094 22.535156 79.65625 22.644531 79.59375 C 22.757812 79.53125 22.882812 79.5 23.027344 79.5 C 23.175781 79.5 23.308594 79.539062 23.421875 79.609375 C 23.53125 79.679688 23.617188 79.777344 23.675781 79.902344 C 23.734375 80.027344 23.761719 80.171875 23.757812 80.339844 L 22.527344 80.339844 C 22.542969 80.472656 22.59375 80.578125 22.683594 80.65625 C 22.773438 80.738281 22.890625 80.777344 23.027344 80.777344 C 23.117188 80.777344 23.203125 80.757812 23.277344 80.71875 C 23.355469 80.679688 23.414062 80.621094 23.457031 80.546875 L 23.71875 80.546875 C 23.660156 80.683594 23.570312 80.792969 23.445312 80.875 C 23.324219 80.957031 23.183594 80.996094 23.019531 80.996094 Z M 22.527344 80.140625 L 23.527344 80.140625 C 23.5 80.011719 23.441406 79.90625 23.351562 79.832031 C 23.265625 79.757812 23.15625 79.71875 23.027344 79.71875 C 22.890625 79.71875 22.78125 79.757812 22.6875 79.832031 C 22.601562 79.90625 22.546875 80.011719 22.527344 80.140625 Z M 22.527344 80.140625 " fill-opacity="1" fill-rule="nonzero"/><path fill="#737373" d="M 24.851562 80.957031 L 24.851562 79.039062 L 25.074219 79.039062 L 25.824219 80.175781 L 26.574219 79.039062 L 26.800781 79.039062 L 26.800781 80.957031 L 26.554688 80.957031 L 26.554688 79.496094 L 25.917969 80.453125 L 25.726562 80.453125 L 25.085938 79.488281 L 25.085938 80.957031 Z M 24.851562 80.957031 " fill-opacity="1" fill-rule="nonzero"/><path fill="#737373" d="M 27.792969 80.984375 C 27.621094 80.984375 27.488281 80.945312 27.390625 80.863281 C 27.296875 80.785156 27.25 80.679688 27.25 80.546875 C 27.25 80.417969 27.292969 80.3125 27.378906 80.238281 C 27.46875 80.160156 27.589844 80.121094 27.734375 80.121094 L 28.316406 80.121094 L 28.316406 80.070312 C 28.316406 79.957031 28.28125 79.871094 28.210938 79.808594 C 28.144531 79.746094 28.050781 79.714844 27.929688 79.714844 C 27.835938 79.714844 27.757812 79.734375 27.6875 79.777344 C 27.617188 79.820312 27.574219 79.875 27.554688 79.945312 L 27.316406 79.945312 C 27.351562 79.808594 27.421875 79.699219 27.53125 79.621094 C 27.636719 79.542969 27.769531 79.5 27.921875 79.5 C 28.046875 79.5 28.15625 79.523438 28.25 79.570312 C 28.34375 79.617188 28.417969 79.679688 28.46875 79.765625 C 28.519531 79.847656 28.546875 79.945312 28.546875 80.050781 L 28.546875 80.957031 L 28.355469 80.957031 L 28.328125 80.757812 C 28.199219 80.90625 28.019531 80.984375 27.792969 80.984375 Z M 27.472656 80.546875 C 27.472656 80.617188 27.5 80.671875 27.5625 80.714844 C 27.617188 80.757812 27.699219 80.777344 27.804688 80.777344 C 27.898438 80.777344 27.984375 80.757812 28.0625 80.71875 C 28.140625 80.679688 28.203125 80.625 28.25 80.558594 C 28.292969 80.492188 28.316406 80.414062 28.316406 80.328125 L 27.742188 80.328125 C 27.664062 80.328125 27.597656 80.347656 27.546875 80.390625 C 27.5 80.425781 27.472656 80.480469 27.472656 80.546875 Z M 27.472656 80.546875 " fill-opacity="1" fill-rule="nonzero"/><path fill="#737373" d="M 29.027344 80.957031 L 29.027344 78.933594 L 29.257812 78.933594 L 29.257812 80.132812 L 29.433594 80.132812 C 29.546875 80.132812 29.636719 80.113281 29.695312 80.078125 C 29.757812 80.035156 29.808594 79.957031 29.851562 79.839844 L 29.957031 79.539062 L 30.207031 79.539062 L 30.0625 79.925781 C 30.003906 80.085938 29.925781 80.195312 29.824219 80.25 L 30.269531 80.957031 L 29.996094 80.957031 L 29.605469 80.332031 C 29.578125 80.335938 29.546875 80.34375 29.519531 80.34375 C 29.488281 80.34375 29.457031 80.34375 29.425781 80.34375 L 29.257812 80.34375 L 29.257812 80.957031 Z M 29.027344 80.957031 " fill-opacity="1" fill-rule="nonzero"/><path fill="#737373" d="M 31.257812 80.996094 C 31.109375 80.996094 30.980469 80.964844 30.863281 80.902344 C 30.75 80.835938 30.664062 80.746094 30.601562 80.632812 C 30.539062 80.519531 30.507812 80.390625 30.507812 80.246094 C 30.507812 80.101562 30.539062 79.972656 30.601562 79.863281 C 30.664062 79.75 30.75 79.664062 30.863281 79.601562 C 30.980469 79.535156 31.109375 79.5 31.257812 79.5 C 31.40625 79.5 31.539062 79.535156 31.652344 79.601562 C 31.761719 79.664062 31.851562 79.75 31.914062 79.863281 C 31.980469 79.972656 32.011719 80.101562 32.011719 80.246094 C 32.011719 80.390625 31.980469 80.519531 31.914062 80.632812 C 31.851562 80.746094 31.761719 80.835938 31.652344 80.902344 C 31.539062 80.964844 31.40625 80.996094 31.257812 80.996094 Z M 30.738281 80.246094 C 30.738281 80.351562 30.757812 80.441406 30.800781 80.519531 C 30.847656 80.601562 30.910156 80.664062 30.988281 80.707031 C 31.066406 80.75 31.15625 80.769531 31.257812 80.769531 C 31.359375 80.769531 31.449219 80.75 31.527344 80.707031 C 31.605469 80.664062 31.667969 80.601562 31.714844 80.519531 C 31.757812 80.441406 31.78125 80.351562 31.78125 80.246094 C 31.78125 80.140625 31.757812 80.050781 31.714844 79.96875 C 31.667969 79.890625 31.605469 79.832031 31.527344 79.789062 C 31.449219 79.742188 31.359375 79.71875 31.257812 79.71875 C 31.15625 79.71875 31.066406 79.742188 30.988281 79.789062 C 30.910156 79.832031 30.847656 79.890625 30.800781 79.96875 C 30.757812 80.050781 30.738281 80.140625 30.738281 80.246094 Z M 30.738281 80.246094 " fill-opacity="1" fill-rule="nonzero"/><path fill="#737373" d="M 32.410156 80.957031 L 32.410156 79.539062 L 32.597656 79.539062 L 32.613281 79.714844 C 32.726562 79.574219 32.878906 79.5 33.078125 79.5 C 33.191406 79.5 33.292969 79.527344 33.378906 79.578125 C 33.464844 79.625 33.53125 79.691406 33.578125 79.78125 C 33.691406 79.59375 33.871094 79.5 34.109375 79.5 C 34.285156 79.5 34.429688 79.5625 34.535156 79.675781 C 34.640625 79.789062 34.695312 79.945312 34.695312 80.144531 L 34.695312 80.957031 L 34.464844 80.957031 L 34.464844 80.183594 C 34.464844 80.042969 34.429688 79.929688 34.359375 79.84375 C 34.285156 79.761719 34.191406 79.71875 34.078125 79.71875 C 33.957031 79.71875 33.855469 79.765625 33.777344 79.851562 C 33.703125 79.9375 33.664062 80.054688 33.664062 80.203125 L 33.664062 80.957031 L 33.433594 80.957031 L 33.433594 80.183594 C 33.433594 80.042969 33.398438 79.929688 33.328125 79.84375 C 33.261719 79.761719 33.167969 79.71875 33.046875 79.71875 C 32.925781 79.71875 32.828125 79.765625 32.753906 79.851562 C 32.675781 79.9375 32.640625 80.054688 32.640625 80.203125 L 32.640625 80.957031 Z M 32.410156 80.957031 " fill-opacity="1" fill-rule="nonzero"/><path fill="#737373" d="M 35.949219 80.996094 C 35.832031 80.996094 35.726562 80.972656 35.632812 80.925781 C 35.535156 80.882812 35.453125 80.820312 35.386719 80.738281 L 35.363281 80.957031 L 35.175781 80.957031 L 35.175781 78.933594 L 35.40625 78.933594 L 35.40625 79.738281 C 35.46875 79.664062 35.546875 79.605469 35.636719 79.5625 C 35.734375 79.523438 35.839844 79.5 35.949219 79.5 C 36.089844 79.5 36.210938 79.535156 36.320312 79.601562 C 36.433594 79.664062 36.515625 79.75 36.574219 79.863281 C 36.636719 79.976562 36.667969 80.105469 36.667969 80.246094 C 36.667969 80.390625 36.636719 80.519531 36.574219 80.632812 C 36.515625 80.746094 36.433594 80.835938 36.320312 80.902344 C 36.210938 80.964844 36.089844 80.996094 35.949219 80.996094 Z M 35.394531 80.246094 C 35.394531 80.351562 35.417969 80.441406 35.464844 80.519531 C 35.507812 80.601562 35.570312 80.664062 35.644531 80.707031 C 35.722656 80.75 35.816406 80.769531 35.917969 80.769531 C 36.023438 80.769531 36.113281 80.75 36.195312 80.707031 C 36.273438 80.664062 36.332031 80.601562 36.375 80.519531 C 36.421875 80.441406 36.445312 80.351562 36.445312 80.246094 C 36.445312 80.144531 36.421875 80.054688 36.375 79.976562 C 36.332031 79.894531 36.273438 79.832031 36.195312 79.789062 C 36.113281 79.742188 36.023438 79.71875 35.917969 79.71875 C 35.816406 79.71875 35.722656 79.742188 35.644531 79.789062 C 35.570312 79.832031 35.507812 79.894531 35.464844 79.976562 C 35.417969 80.054688 35.394531 80.144531 35.394531 80.246094 Z M 35.394531 80.246094 " fill-opacity="1" fill-rule="nonzero"/><path fill="#737373" d="M 37.679688 80.996094 C 37.539062 80.996094 37.414062 80.964844 37.304688 80.902344 C 37.195312 80.835938 37.113281 80.746094 37.050781 80.632812 C 36.988281 80.519531 36.957031 80.390625 36.957031 80.246094 C 36.957031 80.101562 36.988281 79.96875 37.050781 79.859375 C 37.113281 79.746094 37.195312 79.65625 37.304688 79.59375 C 37.417969 79.53125 37.542969 79.5 37.6875 79.5 C 37.835938 79.5 37.96875 79.539062 38.082031 79.609375 C 38.191406 79.679688 38.277344 79.777344 38.335938 79.902344 C 38.394531 80.027344 38.421875 80.171875 38.417969 80.339844 L 37.1875 80.339844 C 37.203125 80.472656 37.253906 80.578125 37.34375 80.65625 C 37.433594 80.738281 37.550781 80.777344 37.6875 80.777344 C 37.777344 80.777344 37.863281 80.757812 37.9375 80.71875 C 38.015625 80.679688 38.074219 80.621094 38.117188 80.546875 L 38.378906 80.546875 C 38.320312 80.683594 38.230469 80.792969 38.105469 80.875 C 37.984375 80.957031 37.84375 80.996094 37.679688 80.996094 Z M 37.1875 80.140625 L 38.1875 80.140625 C 38.160156 80.011719 38.101562 79.90625 38.011719 79.832031 C 37.925781 79.757812 37.816406 79.71875 37.6875 79.71875 C 37.550781 79.71875 37.441406 79.757812 37.347656 79.832031 C 37.261719 79.90625 37.207031 80.011719 37.1875 80.140625 Z M 37.1875 80.140625 " fill-opacity="1" fill-rule="nonzero"/><path fill="#737373" d="M 104.035156 80.957031 L 104.035156 79.039062 L 104.675781 79.039062 C 104.824219 79.039062 104.949219 79.066406 105.050781 79.121094 C 105.160156 79.175781 105.242188 79.25 105.300781 79.34375 C 105.359375 79.441406 105.390625 79.554688 105.390625 79.683594 C 105.390625 79.816406 105.359375 79.929688 105.300781 80.027344 C 105.242188 80.125 105.160156 80.199219 105.050781 80.25 C 104.949219 80.300781 104.824219 80.328125 104.675781 80.328125 L 104.269531 80.328125 L 104.269531 80.957031 Z M 104.269531 80.101562 L 104.675781 80.101562 C 104.988281 80.101562 105.144531 79.964844 105.144531 79.6875 C 105.144531 79.410156 104.988281 79.269531 104.675781 79.269531 L 104.269531 79.269531 Z M 104.269531 80.101562 " fill-opacity="1" fill-rule="nonzero"/><path fill="#737373" d="M 105.753906 80.957031 L 105.753906 79.539062 L 105.988281 79.539062 L 105.988281 80.957031 Z M 105.679688 79.125 C 105.679688 79.074219 105.695312 79.03125 105.730469 78.996094 C 105.769531 78.960938 105.8125 78.945312 105.867188 78.945312 C 105.925781 78.945312 105.96875 78.960938 106 78.996094 C 106.03125 79.03125 106.050781 79.074219 106.050781 79.125 C 106.050781 79.175781 106.03125 79.21875 106 79.25 C 105.96875 79.285156 105.925781 79.300781 105.867188 79.300781 C 105.8125 79.300781 105.769531 79.285156 105.730469 79.25 C 105.695312 79.21875 105.679688 79.175781 105.679688 79.125 Z M 105.679688 79.125 " fill-opacity="1" fill-rule="nonzero"/><path fill="#737373" d="M 107.105469 80.996094 C 106.964844 80.996094 106.839844 80.964844 106.730469 80.902344 C 106.621094 80.835938 106.539062 80.746094 106.476562 80.632812 C 106.414062 80.519531 106.382812 80.390625 106.382812 80.246094 C 106.382812 80.101562 106.414062 79.96875 106.476562 79.859375 C 106.539062 79.746094 106.621094 79.65625 106.730469 79.59375 C 106.84375 79.53125 106.972656 79.5 107.113281 79.5 C 107.261719 79.5 107.394531 79.539062 107.507812 79.609375 C 107.621094 79.679688 107.703125 79.777344 107.761719 79.902344 C 107.820312 80.027344 107.847656 80.171875 107.84375 80.339844 L 106.613281 80.339844 C 106.628906 80.472656 106.683594 80.578125 106.769531 80.65625 C 106.859375 80.738281 106.976562 80.777344 107.113281 80.777344 C 107.203125 80.777344 107.289062 80.757812 107.363281 80.71875 C 107.441406 80.679688 107.503906 80.621094 107.542969 80.546875 L 107.808594 80.546875 C 107.746094 80.683594 107.65625 80.792969 107.53125 80.875 C 107.410156 80.957031 107.269531 80.996094 107.105469 80.996094 Z M 106.613281 80.140625 L 107.613281 80.140625 C 107.589844 80.011719 107.527344 79.90625 107.4375 79.832031 C 107.351562 79.757812 107.242188 79.71875 107.113281 79.71875 C 106.980469 79.71875 106.867188 79.757812 106.777344 79.832031 C 106.6875 79.90625 106.632812 80.011719 106.613281 80.140625 Z M 106.613281 80.140625 " fill-opacity="1" fill-rule="nonzero"/><path fill="#737373" d="M 108.234375 80.957031 L 108.234375 79.539062 L 108.421875 79.539062 L 108.445312 79.78125 C 108.5 79.699219 108.566406 79.640625 108.640625 79.601562 C 108.714844 79.5625 108.8125 79.539062 108.933594 79.539062 L 109.058594 79.539062 L 109.058594 79.75 L 108.921875 79.75 C 108.835938 79.75 108.761719 79.769531 108.691406 79.800781 C 108.617188 79.835938 108.5625 79.894531 108.519531 79.976562 C 108.484375 80.054688 108.464844 80.164062 108.464844 80.296875 L 108.464844 80.957031 Z M 108.234375 80.957031 " fill-opacity="1" fill-rule="nonzero"/><path fill="#737373" d="M 110.042969 80.996094 C 109.902344 80.996094 109.777344 80.964844 109.664062 80.902344 C 109.554688 80.835938 109.46875 80.746094 109.40625 80.632812 C 109.34375 80.519531 109.3125 80.390625 109.3125 80.246094 C 109.3125 80.105469 109.34375 79.976562 109.40625 79.863281 C 109.46875 79.75 109.554688 79.664062 109.664062 79.601562 C 109.777344 79.535156 109.902344 79.5 110.042969 79.5 C 110.160156 79.5 110.265625 79.523438 110.363281 79.570312 C 110.464844 79.613281 110.546875 79.675781 110.613281 79.757812 C 110.683594 79.835938 110.730469 79.929688 110.757812 80.03125 L 110.519531 80.03125 C 110.476562 79.9375 110.414062 79.863281 110.332031 79.808594 C 110.246094 79.75 110.152344 79.71875 110.042969 79.71875 C 109.949219 79.71875 109.859375 79.742188 109.78125 79.789062 C 109.707031 79.832031 109.648438 79.894531 109.605469 79.976562 C 109.566406 80.054688 109.542969 80.144531 109.542969 80.246094 C 109.542969 80.351562 109.566406 80.441406 109.605469 80.519531 C 109.648438 80.601562 109.707031 80.664062 109.78125 80.707031 C 109.859375 80.75 109.949219 80.769531 110.042969 80.769531 C 110.15625 80.769531 110.257812 80.742188 110.34375 80.683594 C 110.433594 80.621094 110.492188 80.539062 110.527344 80.433594 L 110.769531 80.433594 C 110.722656 80.609375 110.636719 80.746094 110.507812 80.84375 C 110.378906 80.945312 110.222656 80.996094 110.042969 80.996094 Z M 110.042969 80.996094 " fill-opacity="1" fill-rule="nonzero"/><path fill="#737373" d="M 111.773438 80.996094 C 111.628906 80.996094 111.503906 80.964844 111.398438 80.902344 C 111.289062 80.835938 111.203125 80.746094 111.140625 80.632812 C 111.078125 80.519531 111.046875 80.390625 111.046875 80.246094 C 111.046875 80.101562 111.078125 79.96875 111.140625 79.859375 C 111.203125 79.746094 111.289062 79.65625 111.398438 79.59375 C 111.507812 79.53125 111.636719 79.5 111.777344 79.5 C 111.929688 79.5 112.058594 79.539062 112.171875 79.609375 C 112.285156 79.679688 112.367188 79.777344 112.429688 79.902344 C 112.484375 80.027344 112.511719 80.171875 112.507812 80.339844 L 111.277344 80.339844 C 111.292969 80.472656 111.347656 80.578125 111.433594 80.65625 C 111.523438 80.738281 111.640625 80.777344 111.777344 80.777344 C 111.867188 80.777344 111.953125 80.757812 112.027344 80.71875 C 112.105469 80.679688 112.167969 80.621094 112.210938 80.546875 L 112.472656 80.546875 C 112.414062 80.683594 112.320312 80.792969 112.195312 80.875 C 112.074219 80.957031 111.933594 80.996094 111.773438 80.996094 Z M 111.277344 80.140625 L 112.277344 80.140625 C 112.253906 80.011719 112.195312 79.90625 112.101562 79.832031 C 112.015625 79.757812 111.90625 79.71875 111.777344 79.71875 C 111.644531 79.71875 111.53125 79.757812 111.441406 79.832031 C 111.351562 79.90625 111.296875 80.011719 111.277344 80.140625 Z M 111.277344 80.140625 " fill-opacity="1" fill-rule="nonzero"/><path fill="#737373" d="M 113.035156 79.390625 C 113.035156 79.226562 113.078125 79.105469 113.160156 79.019531 C 113.242188 78.9375 113.367188 78.894531 113.53125 78.894531 L 113.773438 78.894531 L 113.773438 79.113281 L 113.546875 79.113281 C 113.449219 79.113281 113.375 79.136719 113.328125 79.183594 C 113.28125 79.230469 113.261719 79.304688 113.261719 79.40625 L 113.261719 79.539062 L 113.761719 79.539062 L 113.761719 79.746094 L 113.261719 79.746094 L 113.261719 80.957031 L 113.035156 80.957031 L 113.035156 79.746094 L 112.722656 79.746094 L 112.722656 79.539062 L 113.035156 79.539062 Z M 113.035156 79.390625 " fill-opacity="1" fill-rule="nonzero"/><path fill="#737373" d="M 114.054688 80.957031 L 114.054688 79.539062 L 114.242188 79.539062 L 114.261719 79.714844 C 114.375 79.574219 114.527344 79.5 114.722656 79.5 C 114.839844 79.5 114.941406 79.527344 115.023438 79.578125 C 115.113281 79.625 115.175781 79.691406 115.222656 79.78125 C 115.339844 79.59375 115.519531 79.5 115.753906 79.5 C 115.933594 79.5 116.074219 79.5625 116.179688 79.675781 C 116.289062 79.789062 116.34375 79.945312 116.34375 80.144531 L 116.34375 80.957031 L 116.113281 80.957031 L 116.113281 80.183594 C 116.113281 80.042969 116.074219 79.929688 116.003906 79.84375 C 115.933594 79.761719 115.839844 79.71875 115.722656 79.71875 C 115.601562 79.71875 115.503906 79.765625 115.425781 79.851562 C 115.347656 79.9375 115.3125 80.054688 115.3125 80.203125 L 115.3125 80.957031 L 115.082031 80.957031 L 115.082031 80.183594 C 115.082031 80.042969 115.042969 79.929688 114.972656 79.84375 C 114.90625 79.761719 114.8125 79.71875 114.691406 79.71875 C 114.570312 79.71875 114.472656 79.765625 114.398438 79.851562 C 114.324219 79.9375 114.285156 80.054688 114.285156 80.203125 L 114.285156 80.957031 Z M 114.054688 80.957031 " fill-opacity="1" fill-rule="nonzero"/><path fill="#737373" d="M 117.285156 80.984375 C 117.113281 80.984375 116.980469 80.945312 116.886719 80.863281 C 116.789062 80.785156 116.742188 80.679688 116.742188 80.546875 C 116.742188 80.417969 116.785156 80.3125 116.871094 80.238281 C 116.964844 80.160156 117.082031 80.121094 117.230469 80.121094 L 117.808594 80.121094 L 117.808594 80.070312 C 117.808594 79.957031 117.773438 79.871094 117.703125 79.808594 C 117.636719 79.746094 117.542969 79.714844 117.421875 79.714844 C 117.332031 79.714844 117.25 79.734375 117.179688 79.777344 C 117.113281 79.820312 117.066406 79.875 117.046875 79.945312 L 116.808594 79.945312 C 116.84375 79.808594 116.914062 79.699219 117.023438 79.621094 C 117.128906 79.542969 117.261719 79.5 117.417969 79.5 C 117.542969 79.5 117.648438 79.523438 117.742188 79.570312 C 117.835938 79.617188 117.910156 79.679688 117.960938 79.765625 C 118.011719 79.847656 118.042969 79.945312 118.042969 80.050781 L 118.042969 80.957031 L 117.847656 80.957031 L 117.824219 80.757812 C 117.691406 80.90625 117.511719 80.984375 117.285156 80.984375 Z M 116.964844 80.546875 C 116.964844 80.617188 116.996094 80.671875 117.054688 80.714844 C 117.113281 80.757812 117.191406 80.777344 117.296875 80.777344 C 117.394531 80.777344 117.480469 80.757812 117.554688 80.71875 C 117.632812 80.679688 117.695312 80.625 117.742188 80.558594 C 117.785156 80.492188 117.808594 80.414062 117.808594 80.328125 L 117.234375 80.328125 C 117.15625 80.328125 117.089844 80.347656 117.042969 80.390625 C 116.992188 80.425781 116.964844 80.480469 116.964844 80.546875 Z M 116.964844 80.546875 " fill-opacity="1" fill-rule="nonzero"/><path fill="#737373" d="M 118.519531 80.957031 L 118.519531 78.933594 L 118.75 78.933594 L 118.75 80.132812 L 118.925781 80.132812 C 119.039062 80.132812 119.128906 80.113281 119.1875 80.078125 C 119.25 80.035156 119.300781 79.957031 119.34375 79.839844 L 119.449219 79.539062 L 119.699219 79.539062 L 119.554688 79.925781 C 119.496094 80.085938 119.417969 80.195312 119.320312 80.25 L 119.761719 80.957031 L 119.488281 80.957031 L 119.101562 80.332031 C 119.070312 80.335938 119.039062 80.34375 119.011719 80.34375 C 118.984375 80.34375 118.953125 80.34375 118.917969 80.34375 L 118.75 80.34375 L 118.75 80.957031 Z M 118.519531 80.957031 " fill-opacity="1" fill-rule="nonzero"/><path fill="#737373" d="M 121.324219 81.53125 C 121.125 81.53125 120.945312 81.5 120.78125 81.4375 C 120.617188 81.375 120.476562 81.285156 120.363281 81.171875 C 120.25 81.058594 120.164062 80.925781 120.101562 80.777344 C 120.039062 80.625 120.011719 80.457031 120.011719 80.277344 C 120.011719 80.09375 120.042969 79.925781 120.105469 79.777344 C 120.171875 79.625 120.265625 79.488281 120.382812 79.375 C 120.496094 79.265625 120.632812 79.175781 120.789062 79.113281 C 120.945312 79.050781 121.121094 79.019531 121.3125 79.019531 C 121.503906 79.019531 121.679688 79.054688 121.835938 79.121094 C 121.996094 79.1875 122.128906 79.28125 122.238281 79.394531 C 122.351562 79.507812 122.433594 79.640625 122.492188 79.789062 C 122.554688 79.9375 122.585938 80.09375 122.585938 80.257812 C 122.585938 80.457031 122.542969 80.609375 122.457031 80.714844 C 122.371094 80.820312 122.261719 80.871094 122.125 80.871094 C 122.039062 80.871094 121.96875 80.851562 121.90625 80.8125 C 121.847656 80.777344 121.804688 80.722656 121.773438 80.652344 C 121.710938 80.722656 121.636719 80.78125 121.550781 80.820312 C 121.464844 80.859375 121.375 80.875 121.28125 80.875 C 121.164062 80.875 121.058594 80.851562 120.96875 80.800781 C 120.875 80.75 120.804688 80.675781 120.75 80.582031 C 120.699219 80.492188 120.675781 80.386719 120.675781 80.269531 C 120.675781 80.15625 120.699219 80.050781 120.75 79.957031 C 120.804688 79.867188 120.875 79.796875 120.96875 79.746094 C 121.058594 79.691406 121.164062 79.664062 121.28125 79.664062 C 121.371094 79.664062 121.453125 79.679688 121.523438 79.714844 C 121.59375 79.75 121.65625 79.792969 121.710938 79.851562 L 121.726562 79.71875 L 121.917969 79.71875 L 121.917969 80.390625 C 121.917969 80.472656 121.933594 80.539062 121.96875 80.589844 C 122.007812 80.636719 122.058594 80.65625 122.125 80.65625 C 122.277344 80.65625 122.355469 80.527344 122.355469 80.265625 C 122.355469 80.0625 122.3125 79.886719 122.226562 79.734375 C 122.140625 79.578125 122.019531 79.457031 121.863281 79.371094 C 121.707031 79.28125 121.523438 79.238281 121.3125 79.238281 C 121.089844 79.238281 120.902344 79.28125 120.742188 79.371094 C 120.585938 79.457031 120.460938 79.582031 120.375 79.738281 C 120.289062 79.894531 120.242188 80.074219 120.242188 80.277344 C 120.242188 80.480469 120.289062 80.660156 120.375 80.8125 C 120.460938 80.96875 120.585938 81.089844 120.742188 81.175781 C 120.90625 81.265625 121.097656 81.3125 121.320312 81.3125 C 121.433594 81.3125 121.546875 81.296875 121.65625 81.269531 C 121.765625 81.246094 121.859375 81.207031 121.945312 81.15625 L 121.945312 81.394531 C 121.757812 81.484375 121.554688 81.53125 121.324219 81.53125 Z M 120.90625 80.269531 C 120.90625 80.386719 120.941406 80.484375 121.011719 80.558594 C 121.085938 80.632812 121.183594 80.671875 121.300781 80.671875 C 121.421875 80.671875 121.515625 80.632812 121.585938 80.558594 C 121.664062 80.484375 121.699219 80.386719 121.699219 80.269531 C 121.699219 80.15625 121.664062 80.058594 121.585938 79.984375 C 121.515625 79.90625 121.421875 79.871094 121.300781 79.871094 C 121.183594 79.871094 121.085938 79.90625 121.011719 79.984375 C 120.941406 80.058594 120.90625 80.15625 120.90625 80.269531 Z M 120.90625 80.269531 " fill-opacity="1" fill-rule="nonzero"/><path fill="#737373" d="M 123.625 81.539062 C 123.445312 81.539062 123.296875 81.496094 123.175781 81.40625 C 123.054688 81.320312 122.984375 81.199219 122.957031 81.046875 L 123.1875 81.046875 C 123.214844 81.132812 123.265625 81.203125 123.339844 81.25 C 123.414062 81.300781 123.507812 81.328125 123.625 81.328125 C 123.777344 81.328125 123.890625 81.285156 123.976562 81.207031 C 124.058594 81.128906 124.101562 81.015625 124.101562 80.871094 L 124.101562 80.734375 C 124.039062 80.800781 123.964844 80.851562 123.875 80.890625 C 123.789062 80.925781 123.691406 80.945312 123.589844 80.945312 C 123.453125 80.945312 123.335938 80.914062 123.226562 80.851562 C 123.121094 80.789062 123.039062 80.703125 122.976562 80.59375 C 122.914062 80.484375 122.882812 80.359375 122.882812 80.21875 C 122.882812 80.082031 122.914062 79.960938 122.976562 79.851562 C 123.039062 79.742188 123.121094 79.65625 123.226562 79.59375 C 123.335938 79.53125 123.453125 79.5 123.589844 79.5 C 123.695312 79.5 123.796875 79.523438 123.882812 79.5625 C 123.972656 79.601562 124.050781 79.65625 124.113281 79.726562 L 124.140625 79.539062 L 124.328125 79.539062 L 124.328125 80.875 C 124.328125 81.007812 124.296875 81.125 124.238281 81.226562 C 124.183594 81.328125 124.105469 81.402344 124 81.457031 C 123.898438 81.511719 123.773438 81.539062 123.625 81.539062 Z M 123.113281 80.21875 C 123.113281 80.316406 123.132812 80.40625 123.175781 80.484375 C 123.21875 80.558594 123.277344 80.617188 123.351562 80.65625 C 123.429688 80.699219 123.515625 80.71875 123.613281 80.71875 C 123.714844 80.71875 123.800781 80.699219 123.875 80.65625 C 123.953125 80.617188 124.007812 80.558594 124.050781 80.484375 C 124.097656 80.40625 124.121094 80.316406 124.121094 80.21875 C 124.121094 80.125 124.097656 80.039062 124.050781 79.964844 C 124.007812 79.890625 123.953125 79.832031 123.875 79.789062 C 123.800781 79.742188 123.714844 79.71875 123.613281 79.71875 C 123.515625 79.71875 123.429688 79.742188 123.351562 79.789062 C 123.277344 79.832031 123.21875 79.890625 123.175781 79.964844 C 123.132812 80.039062 123.113281 80.125 123.113281 80.21875 Z M 123.113281 80.21875 " fill-opacity="1" fill-rule="nonzero"/><path fill="#737373" d="M 124.839844 80.957031 L 124.839844 79.539062 L 125.027344 79.539062 L 125.042969 79.714844 C 125.15625 79.574219 125.308594 79.5 125.507812 79.5 C 125.621094 79.5 125.722656 79.527344 125.808594 79.578125 C 125.894531 79.625 125.960938 79.691406 126.007812 79.78125 C 126.121094 79.59375 126.300781 79.5 126.539062 79.5 C 126.714844 79.5 126.859375 79.5625 126.964844 79.675781 C 127.070312 79.789062 127.125 79.945312 127.125 80.144531 L 127.125 80.957031 L 126.894531 80.957031 L 126.894531 80.183594 C 126.894531 80.042969 126.859375 79.929688 126.789062 79.84375 C 126.714844 79.761719 126.621094 79.71875 126.507812 79.71875 C 126.386719 79.71875 126.285156 79.765625 126.207031 79.851562 C 126.132812 79.9375 126.09375 80.054688 126.09375 80.203125 L 126.09375 80.957031 L 125.863281 80.957031 L 125.863281 80.183594 C 125.863281 80.042969 125.828125 79.929688 125.757812 79.84375 C 125.691406 79.761719 125.597656 79.71875 125.476562 79.71875 C 125.355469 79.71875 125.257812 79.765625 125.183594 79.851562 C 125.105469 79.9375 125.070312 80.054688 125.070312 80.203125 L 125.070312 80.957031 Z M 124.839844 80.957031 " fill-opacity="1" fill-rule="nonzero"/><path fill="#737373" d="M 128.066406 80.984375 C 127.894531 80.984375 127.761719 80.945312 127.667969 80.863281 C 127.570312 80.785156 127.523438 80.679688 127.523438 80.546875 C 127.523438 80.417969 127.566406 80.3125 127.65625 80.238281 C 127.746094 80.160156 127.863281 80.121094 128.011719 80.121094 L 128.59375 80.121094 L 128.59375 80.070312 C 128.59375 79.957031 128.558594 79.871094 128.488281 79.808594 C 128.417969 79.746094 128.324219 79.714844 128.207031 79.714844 C 128.113281 79.714844 128.03125 79.734375 127.960938 79.777344 C 127.894531 79.820312 127.851562 79.875 127.832031 79.945312 L 127.59375 79.945312 C 127.625 79.808594 127.695312 79.699219 127.804688 79.621094 C 127.914062 79.542969 128.042969 79.5 128.199219 79.5 C 128.324219 79.5 128.433594 79.523438 128.523438 79.570312 C 128.621094 79.617188 128.691406 79.679688 128.742188 79.765625 C 128.796875 79.847656 128.824219 79.945312 128.824219 80.050781 L 128.824219 80.957031 L 128.628906 80.957031 L 128.605469 80.757812 C 128.476562 80.90625 128.296875 80.984375 128.066406 80.984375 Z M 127.75 80.546875 C 127.75 80.617188 127.777344 80.671875 127.835938 80.714844 C 127.894531 80.757812 127.976562 80.777344 128.082031 80.777344 C 128.175781 80.777344 128.261719 80.757812 128.335938 80.71875 C 128.414062 80.679688 128.476562 80.625 128.523438 80.558594 C 128.570312 80.492188 128.59375 80.414062 128.59375 80.328125 L 128.019531 80.328125 C 127.9375 80.328125 127.875 80.347656 127.824219 80.390625 C 127.773438 80.425781 127.75 80.480469 127.75 80.546875 Z M 127.75 80.546875 " fill-opacity="1" fill-rule="nonzero"/><path fill="#737373" d="M 129.300781 80.957031 L 129.300781 79.539062 L 129.53125 79.539062 L 129.53125 80.957031 Z M 129.226562 79.125 C 129.226562 79.074219 129.242188 79.03125 129.277344 78.996094 C 129.3125 78.960938 129.359375 78.945312 129.414062 78.945312 C 129.472656 78.945312 129.515625 78.960938 129.542969 78.996094 C 129.578125 79.03125 129.59375 79.074219 129.59375 79.125 C 129.59375 79.175781 129.578125 79.21875 129.542969 79.25 C 129.515625 79.285156 129.472656 79.300781 129.414062 79.300781 C 129.359375 79.300781 129.3125 79.285156 129.277344 79.25 C 129.242188 79.21875 129.226562 79.175781 129.226562 79.125 Z M 129.226562 79.125 " fill-opacity="1" fill-rule="nonzero"/><path fill="#737373" d="M 130.039062 78.933594 L 130.269531 78.933594 L 130.269531 80.957031 L 130.039062 80.957031 Z M 130.039062 78.933594 " fill-opacity="1" fill-rule="nonzero"/><path fill="#737373" d="M 130.871094 80.984375 C 130.816406 80.984375 130.773438 80.964844 130.742188 80.933594 C 130.707031 80.894531 130.691406 80.851562 130.691406 80.800781 C 130.691406 80.75 130.707031 80.703125 130.742188 80.671875 C 130.773438 80.636719 130.816406 80.621094 130.871094 80.621094 C 130.929688 80.621094 130.976562 80.636719 131.007812 80.671875 C 131.042969 80.703125 131.058594 80.75 131.058594 80.800781 C 131.058594 80.851562 131.042969 80.894531 131.007812 80.933594 C 130.976562 80.964844 130.929688 80.984375 130.871094 80.984375 Z M 130.871094 80.984375 " fill-opacity="1" fill-rule="nonzero"/><path fill="#737373" d="M 132.097656 80.996094 C 131.957031 80.996094 131.832031 80.964844 131.71875 80.902344 C 131.609375 80.835938 131.523438 80.746094 131.460938 80.632812 C 131.398438 80.519531 131.367188 80.390625 131.367188 80.246094 C 131.367188 80.105469 131.398438 79.976562 131.460938 79.863281 C 131.523438 79.75 131.609375 79.664062 131.71875 79.601562 C 131.832031 79.535156 131.957031 79.5 132.097656 79.5 C 132.214844 79.5 132.320312 79.523438 132.417969 79.570312 C 132.519531 79.613281 132.601562 79.675781 132.667969 79.757812 C 132.738281 79.835938 132.785156 79.929688 132.8125 80.03125 L 132.574219 80.03125 C 132.53125 79.9375 132.46875 79.863281 132.386719 79.808594 C 132.300781 79.75 132.207031 79.71875 132.097656 79.71875 C 132.003906 79.71875 131.914062 79.742188 131.835938 79.789062 C 131.761719 79.832031 131.703125 79.894531 131.660156 79.976562 C 131.621094 80.054688 131.597656 80.144531 131.597656 80.246094 C 131.597656 80.351562 131.621094 80.441406 131.660156 80.519531 C 131.703125 80.601562 131.761719 80.664062 131.835938 80.707031 C 131.914062 80.75 132.003906 80.769531 132.097656 80.769531 C 132.210938 80.769531 132.3125 80.742188 132.398438 80.683594 C 132.488281 80.621094 132.546875 80.539062 132.582031 80.433594 L 132.824219 80.433594 C 132.777344 80.609375 132.691406 80.746094 132.5625 80.84375 C 132.433594 80.945312 132.277344 80.996094 132.097656 80.996094 Z M 132.097656 80.996094 " fill-opacity="1" fill-rule="nonzero"/><path fill="#737373" d="M 133.851562 80.996094 C 133.707031 80.996094 133.574219 80.964844 133.457031 80.902344 C 133.347656 80.835938 133.257812 80.746094 133.195312 80.632812 C 133.132812 80.519531 133.101562 80.390625 133.101562 80.246094 C 133.101562 80.101562 133.132812 79.972656 133.195312 79.863281 C 133.257812 79.75 133.347656 79.664062 133.457031 79.601562 C 133.574219 79.535156 133.707031 79.5 133.851562 79.5 C 134.003906 79.5 134.132812 79.535156 134.246094 79.601562 C 134.359375 79.664062 134.445312 79.75 134.507812 79.863281 C 134.574219 79.972656 134.609375 80.101562 134.609375 80.246094 C 134.609375 80.390625 134.574219 80.519531 134.507812 80.632812 C 134.445312 80.746094 134.359375 80.835938 134.246094 80.902344 C 134.132812 80.964844 134.003906 80.996094 133.851562 80.996094 Z M 133.332031 80.246094 C 133.332031 80.351562 133.355469 80.441406 133.394531 80.519531 C 133.441406 80.601562 133.503906 80.664062 133.582031 80.707031 C 133.660156 80.75 133.753906 80.769531 133.851562 80.769531 C 133.957031 80.769531 134.046875 80.75 134.121094 80.707031 C 134.199219 80.664062 134.261719 80.601562 134.308594 80.519531 C 134.355469 80.441406 134.378906 80.351562 134.378906 80.246094 C 134.378906 80.140625 134.355469 80.050781 134.308594 79.96875 C 134.261719 79.890625 134.199219 79.832031 134.121094 79.789062 C 134.046875 79.742188 133.957031 79.71875 133.851562 79.71875 C 133.753906 79.71875 133.660156 79.742188 133.582031 79.789062 C 133.503906 79.832031 133.441406 79.890625 133.394531 79.96875 C 133.355469 80.050781 133.332031 80.140625 133.332031 80.246094 Z M 133.332031 80.246094 " fill-opacity="1" fill-rule="nonzero"/><path fill="#737373" d="M 135.003906 80.957031 L 135.003906 79.539062 L 135.191406 79.539062 L 135.210938 79.714844 C 135.320312 79.574219 135.476562 79.5 135.671875 79.5 C 135.789062 79.5 135.886719 79.527344 135.972656 79.578125 C 136.058594 79.625 136.125 79.691406 136.171875 79.78125 C 136.289062 79.59375 136.464844 79.5 136.703125 79.5 C 136.882812 79.5 137.023438 79.5625 137.128906 79.675781 C 137.234375 79.789062 137.289062 79.945312 137.289062 80.144531 L 137.289062 80.957031 L 137.058594 80.957031 L 137.058594 80.183594 C 137.058594 80.042969 137.023438 79.929688 136.953125 79.84375 C 136.882812 79.761719 136.789062 79.71875 136.671875 79.71875 C 136.550781 79.71875 136.449219 79.765625 136.371094 79.851562 C 136.296875 79.9375 136.257812 80.054688 136.257812 80.203125 L 136.257812 80.957031 L 136.027344 80.957031 L 136.027344 80.183594 C 136.027344 80.042969 135.992188 79.929688 135.921875 79.84375 C 135.855469 79.761719 135.761719 79.71875 135.640625 79.71875 C 135.519531 79.71875 135.421875 79.765625 135.347656 79.851562 C 135.273438 79.9375 135.234375 80.054688 135.234375 80.203125 L 135.234375 80.957031 Z M 135.003906 80.957031 " fill-opacity="1" fill-rule="nonzero"/></svg>