<svg xmlns="http://www.w3.org/2000/svg" xmlns:xlink="http://www.w3.org/1999/xlink" width="500" zoomAndPan="magnify" viewBox="0 0 375 374.999991" height="500" preserveAspectRatio="xMidYMid meet" version="1.0"><defs><clipPath id="771867a716"><path d="M 0.117188 53.960938 L 375 53.960938 L 375 375 L 0.117188 375 Z M 0.117188 53.960938 " clip-rule="nonzero"/></clipPath></defs><g clip-path="url(#771867a716)"><path fill="#ffffff" d="M 1.257812 53.960938 C 2.785156 57.648438 4.136719 61.480469 5.445312 65.1875 C 7.527344 71.597656 10.085938 77.804688 13.128906 83.820312 C 29.105469 113.394531 58.230469 118.292969 89.066406 123.484375 C 104.582031 126.097656 120.628906 128.796875 134.582031 134.980469 C 157.046875 144.945312 168.789062 157.542969 181.476562 175.945312 C 190.074219 188.414062 197.457031 202.332031 204.597656 215.792969 C 218.992188 242.929688 233.878906 270.988281 259.617188 289.140625 C 272.601562 298.292969 287.796875 304.242188 302.492188 309.992188 C 318.550781 316.28125 335.15625 322.78125 348.964844 333.496094 C 366.230469 346.890625 378.410156 367.78125 382.382812 390.820312 C 382.78125 393.152344 383.105469 395.523438 383.332031 397.863281 L 381.980469 397.996094 C 381.757812 395.691406 381.4375 393.351562 381.042969 391.046875 C 377.132812 368.34375 365.132812 347.757812 348.132812 334.566406 C 334.480469 323.972656 317.964844 317.511719 301.996094 311.257812 C 287.226562 305.476562 271.953125 299.496094 258.835938 290.25 C 232.828125 271.910156 217.863281 243.707031 203.394531 216.429688 C 196.277344 203.003906 188.910156 189.121094 180.355469 176.714844 C 167.808594 158.511719 156.207031 146.054688 134.03125 136.222656 C 120.234375 130.105469 104.273438 127.421875 88.839844 124.820312 C 59.039062 119.808594 28.222656 114.625 11.933594 84.464844 C 8.855469 78.390625 6.265625 72.113281 4.164062 65.636719 C 2.867188 61.949219 1.519531 58.136719 0.00390625 54.476562 L 1.257812 53.960938 " fill-opacity="1" fill-rule="nonzero"/></g></svg>